<svg width="1675" height="568" viewBox="0 0 1675 568" fill="none" xmlns="http://www.w3.org/2000/svg">
<g clip-path="url(#clip0_72_11)">
<path d="M1343.43 771.038C1301.91 771.038 1262.31 761.76 1225.62 743.422C1190.68 725.95 1158.8 700.048 1133.46 668.518C1089.37 613.654 1066.86 545.773 1071.71 482.277C1077.01 413.117 1114.49 357.261 1177.26 324.997C1296.86 263.533 1285.6 172.88 1239.62 113.926C1188.49 48.3583 1090.26 6.38529 988.538 6.38529C987.212 6.38529 985.908 6.39253 984.587 6.4061C916.766 7.13347 850.566 25.2562 787.823 60.2739C715.92 100.403 651.108 161.675 595.181 242.388C529.534 337.138 462.756 384.769 391.027 388C388.436 388.117 385.836 388.175 383.249 388.175C280.575 388.185 182.524 297.423 87.6072 209.577C41.6375 167.032 -5.89799 123.04 -52.5691 90.9908C-104.678 55.2086 -150.527 38.1652 -192.762 38.8672C-241.174 39.6796 -286.144 63.1617 -330.238 110.656L-331.699 110.27C-287.314 62.4651 -241.884 38.8229 -192.813 38.0005C-149.997 37.2668 -103.73 54.4423 -51.2801 90.4579C-4.54109 122.553 43.0216 166.574 89.0185 209.144C186.07 298.963 286.397 391.855 390.888 387.136C461.922 383.935 528.247 336.489 593.651 242.087C649.656 161.263 714.585 99.8893 786.641 59.6741C849.697 24.4827 916.283 6.26949 984.553 5.5376C1037.78 4.96765 1090.43 15.4937 1136.87 35.9767C1180.47 55.204 1216.52 82.0443 1241.13 113.593C1268.8 149.074 1279.5 188.323 1271.27 224.11C1262.09 264.01 1229.97 299.114 1178.39 325.622C1115.93 357.732 1078.62 413.378 1073.35 482.312C1068.5 545.682 1090.96 613.427 1134.96 668.175C1160.22 699.597 1191.95 725.397 1226.74 742.79C1264.91 761.874 1306.2 771.071 1349.58 770.103C1419.15 768.56 1490.68 741.154 1562.2 688.651C1644.26 628.4 1724.52 535.992 1800.77 413.992L1802.31 414.267C1726.02 536.351 1645.68 628.838 1563.52 689.16C1491.7 741.891 1419.75 769.417 1349.65 770.971C1347.58 771.017 1345.5 771.038 1343.43 771.038Z" fill="#9F1D93"/>
<path d="M1368.67 759.152C1280.51 759.155 1198.6 718.546 1143.25 647.199C1061.24 541.455 1055.62 386.202 1189.57 319.77C1305.25 262.406 1298.92 178.666 1254.42 119.427C1202.35 50.107 1098.56 5.56112 989.5 5.56112C988.664 5.56112 987.847 5.56293 987.017 5.56745C918.066 5.99627 851.101 23.5002 787.976 57.5987C715.649 96.6677 650.916 156.511 595.577 235.468C531.117 327.441 464.7 373.884 392.527 377.447C389.548 377.596 386.566 377.668 383.592 377.668C278.766 377.673 176.965 287.659 78.4181 200.529C30.5973 158.248 -18.8521 114.526 -67.1926 82.7228C-121.17 47.2138 -168.393 30.3839 -211.599 31.2334C-260.31 32.2087 -305.164 55.0448 -348.72 101.047L-350.177 100.656C-306.327 54.3473 -261.018 31.3538 -211.66 30.3676C-167.905 29.4738 -120.247 46.4385 -65.9257 82.1764C-17.5139 114.026 31.9644 157.773 79.814 200.079C180.897 289.451 285.386 381.858 392.379 376.584C463.861 373.052 529.83 326.792 594.05 235.164C649.472 156.091 714.328 96.1439 786.814 56.9899C850.249 22.7221 917.604 5.12958 987 4.69895C1043.2 4.35608 1098.82 15.7027 1147.82 37.5283C1193.21 57.7444 1231.6 86.7161 1255.93 119.105C1282.12 153.968 1291.29 190.496 1282.44 224.742C1272.72 262.377 1240.99 295.456 1190.68 320.405C1057.24 386.585 1062.95 541.39 1144.76 646.866C1200.92 719.264 1284.43 759.896 1373.83 758.238C1444.54 756.955 1516.76 730.321 1588.47 679.072C1670.74 620.275 1750.59 529.941 1825.79 410.578L1827.34 410.854C1752.08 530.303 1672.15 620.721 1589.77 679.593C1517.75 731.062 1445.12 757.813 1373.89 759.106C1372.15 759.136 1370.41 759.152 1368.67 759.152Z" fill="#E654B2"/>
<path d="M1393.92 747.602C1345.07 747.602 1298.54 736.168 1255.54 713.585C1215.49 692.555 1179.92 662.179 1152.69 625.734C1074.89 521.633 1072.07 376.825 1202.01 314.691C1314.04 261.12 1310.25 181.505 1269.35 124.86C1217.44 52.9756 1105.32 4.75034 990.221 4.75034C989.995 4.75034 989.79 4.75034 989.564 4.75034C919.444 4.86071 851.675 21.7467 788.124 54.9379C715.328 92.9592 650.634 151.411 595.842 228.665C532.56 317.896 466.526 363.169 393.965 367.068C390.575 367.248 387.175 367.338 383.784 367.338C276.764 367.343 171.142 278.038 68.8891 191.584C19.1697 149.548 -32.2412 106.082 -82.2918 74.5099C-138.183 39.2533 -186.834 22.6089 -231.007 23.6366C-279.984 24.772 -324.709 46.9703 -367.736 91.5053L-369.186 91.1064C-325.867 46.271 -280.692 23.917 -231.078 22.7681C-186.355 21.7422 -137.283 38.4735 -81.047 73.9499C-30.9217 105.568 20.5198 149.06 70.2681 191.12C175.496 280.087 284.299 372.074 393.8 366.204C465.687 362.341 531.273 317.25 594.315 228.36C649.194 150.985 714.019 92.429 786.984 54.3173C850.845 20.9623 919 3.99221 989.561 3.88184C989.786 3.88184 990.017 3.88184 990.243 3.88184C1049.3 3.88184 1107.66 16.0707 1159.06 39.1493C1206.91 60.6374 1246.62 90.968 1270.87 124.55C1295.17 158.203 1303.08 193.046 1293.75 225.31C1283.49 260.752 1252.14 291.883 1203.09 315.337C1073.69 377.218 1076.61 521.588 1154.2 625.415C1181.36 661.746 1216.79 692.021 1256.68 712.967C1300.64 736.054 1348.35 747.369 1398.27 746.704C1470.15 745.698 1543.08 719.831 1615.01 669.82C1697.52 612.452 1776.98 524.145 1851.19 407.354L1852.73 407.632C1778.47 524.516 1698.92 612.906 1616.3 670.348C1544.05 720.577 1470.71 746.558 1398.31 747.572C1396.85 747.591 1395.38 747.602 1393.92 747.602Z" fill="#2E3192"/>
<path d="M1419.79 736.384C1317.68 736.386 1221.45 687.148 1161.86 604.244C1124.58 552.379 1106.9 492.668 1113.35 440.417C1120.54 382.137 1155.54 336.962 1214.56 309.769C1306.76 267.292 1332.85 200.153 1284.36 130.173C1233.14 56.237 1113.01 4.33782 992.242 3.96057C991.765 3.95786 991.273 3.95786 990.795 3.95786C919.982 3.95786 851.862 20.216 788.28 52.2953C714.963 89.2862 650.264 146.378 595.981 221.984C533.865 308.512 468.234 352.629 395.339 356.856C391.509 357.081 387.671 357.189 383.837 357.189C274.574 357.194 165.061 268.558 59.0242 182.741C7.36368 140.933 -46.0545 97.7007 -97.8526 66.346C-155.698 31.3328 -205.791 14.8829 -250.961 16.0707C-300.169 17.3626 -344.748 38.934 -387.247 82.0233L-388.692 81.6207C-345.9 38.2347 -300.876 16.5104 -251.043 15.204C-205.336 14.0144 -154.825 30.5457 -96.6282 65.7742C-44.7554 97.1723 8.6951 140.431 60.3862 182.265C169.872 270.87 283.056 362.5 395.166 355.994C467.39 351.805 532.577 307.868 594.46 221.674C648.829 145.945 713.664 88.7443 787.157 51.6647C851.049 19.4289 919.558 3.08936 990.795 3.08936C991.281 3.08936 991.765 3.08936 992.251 3.09207C1054.67 3.28658 1116.32 16.3367 1170.54 40.8329C1220.91 63.5876 1261.88 95.2083 1285.9 129.872C1308.34 162.259 1315.01 195.429 1305.18 225.796C1294.41 259.135 1263.43 288.4 1215.63 310.425C1087.19 369.599 1092.85 505.812 1163.38 603.934C1223.31 687.322 1320.37 736.52 1422.87 735.501C1495.95 734.785 1569.62 709.685 1641.81 660.891C1724.61 604.932 1803.74 518.607 1876.99 404.318L1878.53 404.598C1805.22 518.981 1726.01 605.393 1643.09 661.429C1570.58 710.436 1496.5 735.649 1422.9 736.369C1421.86 736.379 1420.82 736.384 1419.79 736.384Z" fill="#C3213D"/>
<path d="M1445.83 725.494C1389.47 725.496 1333.65 711.235 1284.26 684.207C1238.59 659.203 1199.37 624.15 1170.86 582.833C1135.62 531.77 1120.19 476.45 1127.42 427.061C1135.37 372.642 1169.9 330.431 1227.25 304.992C1316.64 265.347 1343.63 201.911 1299.44 135.305C1248.52 58.5414 1123.36 4.21489 995.077 3.19622C922.482 2.63079 852.98 18.252 788.462 49.6646C714.568 85.6368 649.821 141.404 596.007 215.413C535.038 299.281 469.834 342.26 396.67 346.812C392.379 347.078 388.062 347.208 383.762 347.208C272.208 347.219 158.726 259.211 48.8279 173.997C-4.82127 132.396 -60.2977 89.3795 -113.884 58.2311C-173.734 23.4422 -225.284 7.18679 -271.486 8.53206C-320.89 9.97504 -365.312 30.9276 -407.289 72.5975L-408.728 72.185C-366.457 30.2283 -321.594 9.12463 -271.574 7.66628C-224.852 6.29025 -172.881 22.6506 -112.682 57.6448C-59.019 88.8367 -3.51022 131.88 50.1712 173.503C164.032 261.791 281.764 353.077 396.484 345.948C468.99 341.439 533.759 298.636 594.49 215.101C648.391 140.963 713.28 85.0876 787.363 49.0232C852.197 17.4577 922.088 1.73424 995.104 2.32772C1060.68 2.84882 1125.41 16.7584 1182.28 42.5565C1235.19 66.5642 1277.35 99.398 1300.98 135.016C1345.4 201.979 1318.23 265.77 1228.29 305.661C1104.15 360.72 1106.2 486.621 1172.38 582.535C1200.82 623.736 1239.91 658.684 1285.43 683.6C1334.5 710.457 1389.93 724.626 1445.83 724.626C1446.44 724.626 1447.03 724.626 1447.64 724.621C1521.96 724.216 1596.4 699.879 1668.9 652.288C1752.03 597.713 1830.86 513.328 1903.19 401.476L1904.73 401.759C1832.33 513.707 1753.42 598.181 1670.17 652.834C1597.35 700.636 1522.49 725.082 1447.66 725.49C1447.05 725.494 1446.44 725.494 1445.83 725.494Z" fill="#EA2F21"/>
<path d="M1472.21 714.926C1411.53 714.929 1351.41 699.312 1298.31 669.755C1249.64 642.658 1208.67 605.284 1179.84 561.674C1147.26 512.412 1133.69 460.008 1141.61 414.117C1150.36 363.452 1184.41 324.117 1240.06 300.367C1326.79 263.364 1354.63 203.495 1314.53 140.22C1272.09 73.2436 1149.76 4.41682 998.069 2.46451C924.165 1.50554 853.727 16.5134 788.653 47.0493C714.133 82.0191 649.286 136.494 595.917 208.957C536.081 290.199 471.325 332.057 397.947 336.925C279.6 344.774 156.914 253.558 38.2767 165.344C-17.4121 123.936 -74.9978 81.118 -130.415 50.1596C-192.312 15.5825 -245.357 -0.483868 -292.6 1.02153C-342.165 2.60835 -386.415 22.9566 -427.877 63.2269L-429.305 62.8099C-387.554 22.2545 -342.868 1.76066 -292.699 0.155747C-244.951 -1.36141 -191.485 14.7882 -129.235 49.5598C-73.7377 80.5626 -16.1197 123.406 39.6013 164.837C157.962 252.847 280.354 343.85 397.744 336.064C470.478 331.237 534.804 289.558 594.398 208.639C647.864 136.047 712.859 81.4609 787.575 46.3988C852.966 15.7118 923.791 0.655134 998.108 1.59601C1066.88 2.4826 1134.69 17.2516 1194.21 44.3117C1249.71 69.5453 1292.99 103.507 1316.07 139.944C1334.93 169.698 1339.23 199.616 1328.48 226.465C1316.55 256.298 1287.15 281.391 1241.08 301.046C1116.84 354.061 1123.04 473.162 1181.38 561.387C1210.14 604.879 1250.98 642.146 1299.49 669.153C1352.27 698.534 1411.99 714.057 1472.21 714.057C1472.34 714.057 1472.46 714.057 1472.59 714.057C1548.18 713.977 1623.43 690.407 1696.26 643.997C1779.76 590.786 1858.33 508.295 1929.79 398.815L1931.33 399.1C1859.81 508.68 1781.14 591.261 1697.51 644.552C1624.36 691.169 1548.68 714.845 1472.59 714.926C1472.47 714.926 1472.34 714.926 1472.21 714.926Z" fill="#C52A23"/>
<path d="M1499.03 704.68C1498.58 704.68 1498.15 704.68 1497.71 704.678C1432.96 704.458 1368.83 687.454 1312.25 655.502C1261.21 626.684 1217.4 585.978 1188.9 540.888C1134.25 454.446 1132.88 345.166 1253.02 295.887C1338.5 260.832 1366.42 205.79 1329.64 144.873C1289.02 77.6188 1160.12 4.60414 1001.24 1.758C838.594 -1.14876 694.539 70.175 595.694 202.606C536.981 281.267 472.694 322.022 399.162 327.196C393.867 327.57 388.531 327.751 383.21 327.754C266.931 327.763 145.246 240.904 27.3774 156.782C-30.3985 115.548 -90.141 72.9099 -147.429 42.1333C-211.423 7.75427 -265.992 -8.13114 -314.29 -6.46833C-363.983 -4.74309 -408.043 15.0053 -448.993 53.9078L-450.416 53.4817C-409.174 14.3042 -364.682 -5.58807 -314.396 -7.33502C-265.62 -9.02045 -210.616 6.95271 -146.271 41.5217C-88.903 72.3426 -29.1248 115.003 28.6833 156.263C151.665 244.032 278.817 334.787 398.948 326.336C471.846 321.204 535.707 280.628 594.178 202.285C647.251 131.181 712.399 77.8522 787.818 43.7816C853.813 13.9659 925.678 -0.470249 1001.3 0.889496C1073.27 2.17958 1144.17 17.8053 1206.34 46.0768C1264.43 72.4982 1308.77 107.491 1331.19 144.606C1368.19 205.893 1340.07 261.282 1254.02 296.576C1134.51 345.592 1135.97 454.46 1190.44 540.61C1237.83 615.575 1346.75 703.295 1497.72 703.809C1498.15 703.812 1498.6 703.812 1499.03 703.812C1575.48 703.812 1651.13 681.011 1723.93 636.023C1807.85 584.156 1886.21 503.517 1956.84 396.344L1958.38 396.631C1887.68 503.907 1809.22 584.64 1725.16 636.59C1652.05 681.773 1575.97 704.678 1499.03 704.68Z" fill="#A22D57"/>
<path d="M1526.24 694.751C1525.15 694.751 1524.08 694.747 1523 694.738C1454.23 694.191 1386.16 675.788 1326.14 641.514C1271.96 610.577 1226.52 567.661 1198.18 520.674C1170.97 475.556 1161.12 429.021 1170.46 389.642C1180.79 346.057 1213.88 312.139 1266.14 291.552C1349.22 258.827 1377.87 206.958 1344.74 149.243C1305.17 80.3102 1172.52 4.95879 1004.63 1.08854C838.923 -2.71657 693.53 66.6196 595.346 196.363C537.747 272.482 473.956 312.148 400.327 317.623C394.488 318.059 388.619 318.269 382.74 318.269C264.027 318.272 138.101 231.934 16.1231 148.307C-43.7892 107.231 -105.741 64.7559 -164.945 34.1449C-231.078 -0.0504606 -287.23 -15.783 -336.571 -13.9401C-386.353 -12.0846 -430.214 7.07576 -470.654 44.6293L-472.069 44.1987C-431.337 6.37192 -387.051 -12.9278 -336.685 -14.8059C-286.838 -16.666 -230.295 -0.856537 -163.809 33.5216C-104.525 64.1769 -42.5359 106.676 17.4104 147.773C145.144 235.346 277.238 325.91 400.101 316.762C473.1 311.336 536.473 271.845 593.833 196.038C646.555 126.371 711.915 74.2678 788.102 41.1762C854.758 12.2261 927.643 -1.55134 1004.7 0.220041C1078.8 1.929 1154.79 18.8457 1218.67 47.8537C1279.36 75.4159 1324.68 111.333 1346.3 148.989C1379.64 207.076 1350.77 259.295 1267.11 292.251C1144.85 340.411 1154.4 445.258 1199.74 520.41C1251.29 605.879 1371.24 692.665 1523.02 693.869C1524.09 693.878 1525.17 693.883 1526.24 693.883C1603.37 693.883 1679.26 671.847 1751.87 628.359C1836.25 577.817 1914.45 498.987 1984.29 394.059L1985.82 394.348C1915.92 499.383 1837.61 578.31 1753.09 628.935C1680.16 672.613 1603.85 694.75 1526.24 694.751Z" fill="#762969"/>
<path d="M1553.87 685.133C1552.07 685.133 1550.27 685.122 1548.46 685.098C1475.61 684.181 1403.55 664.373 1340.06 627.814C1282.66 594.772 1235.68 549.789 1207.77 501.15C1182.8 457.653 1174.97 415.143 1185.12 378.207C1196.21 337.9 1228.81 306.483 1279.41 287.358C1360.24 256.8 1389.56 207.94 1359.84 153.307C1321.03 81.9611 1178.9 5.28073 1008.23 0.454227C839.232 -4.31709 692.46 63.074 594.872 190.227C538.371 263.848 475.098 302.437 401.447 308.199C395.048 308.699 388.6 308.945 382.148 308.945C260.952 308.954 130.707 223.093 4.51886 139.919C-57.5859 98.9837 -121.805 56.6543 -182.967 26.1962C-251.292 -7.83 -309.031 -23.3988 -359.459 -21.3949C-409.3 -19.4172 -452.945 -0.840381 -492.884 35.3978L-494.291 34.9581C-454.059 -1.54513 -409.997 -20.2604 -359.581 -22.2616C-308.685 -24.2808 -250.533 -8.6406 -181.853 25.562C-120.608 56.0608 -56.3529 98.4138 5.78574 139.373C138.403 226.783 275.509 317.155 401.208 307.34C474.242 301.626 537.098 263.211 593.359 189.898C645.768 121.618 711.393 70.7095 788.414 38.5868C855.788 10.4872 929.764 -2.63076 1008.32 -0.412463C1085.57 1.77145 1164.71 19.5422 1231.16 49.6249C1293.53 77.862 1341 115.564 1361.4 153.067C1375.45 178.888 1376.57 204.308 1364.65 226.579C1351.46 251.216 1323.1 271.906 1280.35 288.064C1230.12 307.051 1197.75 338.265 1186.74 378.335C1176.62 415.14 1184.43 457.521 1209.33 500.896C1237.17 549.413 1284.03 594.277 1341.25 627.224C1404.44 663.606 1476.1 683.318 1548.5 684.23C1628.1 685.239 1706.05 663.96 1780.13 621.003C1865.04 571.767 1943.12 494.707 2012.21 391.962L2013.74 392.254C1944.58 495.11 1866.38 572.27 1781.33 621.591C1708.6 663.766 1632.1 685.131 1553.87 685.133Z" fill="#C4156C"/>
<path d="M1581.93 675.825C1579.33 675.825 1576.72 675.802 1574.1 675.758C1497.15 674.428 1421.06 653.231 1354.07 614.458C1293.42 579.355 1245 532.472 1217.74 482.446C1195.31 441.274 1189.16 401.481 1199.95 367.364C1211.73 330.128 1243.85 301.064 1292.83 283.312C1372.74 254.35 1401.89 209.517 1374.94 157.069C1338.47 86.1019 1189.38 5.81995 1012.1 -0.139228C839.771 -5.93104 691.361 59.5285 594.276 184.189C538.864 255.355 476.133 292.886 402.512 298.922C395.531 299.493 388.492 299.774 381.435 299.774C257.705 299.781 123.033 214.359 -7.45356 131.604C-71.8017 90.7963 -138.339 48.5963 -201.503 18.2802C-272.07 -15.5931 -331.427 -31.0135 -382.954 -28.8459C-432.817 -26.7524 -476.231 -8.74733 -515.675 26.1962L-517.071 25.7475C-477.337 -9.45389 -433.509 -27.5947 -383.081 -29.7098C-331.098 -31.891 -271.332 -16.4064 -200.411 17.6343C-137.164 47.992 -70.5874 90.2155 -6.20535 131.046C131.432 218.336 273.728 308.6 402.264 298.065C475.277 292.078 537.594 254.72 592.773 183.858C644.907 116.909 710.859 67.1668 788.796 36.0048C856.953 8.75475 932.126 -3.70098 1012.2 -1.00502C1092.58 1.69548 1174.85 20.3049 1243.84 51.3945C1308.75 80.643 1357.11 119.077 1376.51 156.838C1389.32 181.757 1389.51 205.158 1377.07 226.386C1363.54 249.503 1335.5 268.897 1293.75 284.029C1181.44 324.736 1181.65 413.089 1219.31 482.203C1246.5 532.104 1294.78 578.864 1355.27 613.869C1421.96 652.468 1497.65 673.567 1574.16 674.89C1655.21 676.279 1734.13 655.787 1808.7 613.954C1894.18 566.002 1972.19 490.668 2040.57 390.043L2042.11 390.338C1973.65 491.078 1895.52 566.513 1809.89 614.551C1737.37 655.226 1660.72 675.825 1581.93 675.825Z" fill="#E1174D"/>
<path d="M1610.43 666.827C1606.94 666.827 1603.43 666.788 1599.92 666.711C1518.85 664.924 1438.74 642.368 1368.23 601.482C1305.2 564.926 1254.14 515.058 1228.15 464.664C1208.12 425.815 1203.54 388.625 1214.92 357.114C1227.33 322.739 1258.97 295.866 1306.39 279.4C1384.34 252.34 1414.05 210.119 1390.06 160.513C1355.29 88.6523 1202.5 6.58444 1016.25 -0.690148C840.302 -7.56125 690.2 55.9867 593.551 178.251C539.207 247.009 477.046 283.492 403.518 289.79C395.932 290.438 388.283 290.753 380.596 290.756C254.286 290.756 115.085 205.744 -19.7982 123.373C-86.4423 82.6741 -155.355 40.5907 -220.568 10.4013C-293.426 -23.3309 -354.425 -38.6011 -407.07 -36.2797C-456.926 -34.0822 -500.098 -16.6407 -539.051 17.039L-540.438 16.5831C-501.194 -17.3491 -457.612 -34.9226 -407.205 -37.1463C-354.111 -39.4949 -292.707 -24.1487 -219.498 9.74361C-154.202 39.9747 -85.2501 82.0815 -18.5686 122.803C124.23 210.008 271.887 300.175 403.261 288.93C476.185 282.686 537.937 246.372 592.046 177.915C643.956 112.25 710.303 63.6395 789.236 33.4319C858.247 7.02231 934.665 -4.74496 1016.37 -1.55593C1099.86 1.70456 1185.21 21.1363 1256.7 53.155C1324.12 83.3526 1373.31 122.405 1391.63 160.295C1415.81 210.29 1385.86 252.849 1307.28 280.128C1215.61 311.954 1186.62 380.853 1229.72 464.434C1255.64 514.699 1306.57 564.437 1369.44 600.894C1439.64 641.606 1519.36 664.064 1599.98 665.843C1682.55 667.661 1762.46 647.934 1837.59 607.205C1923.69 560.523 2001.69 486.874 2069.4 388.306L2070.94 388.604C2003.14 487.291 1925.02 561.044 1838.75 607.811C1766.48 646.993 1689.72 666.827 1610.43 666.827Z" fill="#C23322"/>
<path d="M1639.41 658.129C1634.91 658.129 1630.41 658.068 1625.9 657.946C1518.3 655.053 1434.2 618.803 1382.6 588.901C1316.28 550.474 1263.95 499.061 1239.04 447.852C1221.25 411.285 1218.14 376.57 1230.06 347.461C1243.23 315.282 1273.54 291.112 1320.15 275.628C1396.28 250.334 1426.48 210.566 1405.2 163.649C1388.09 125.925 1338.33 86.5326 1268.69 55.5705C1195.01 22.8082 1106.94 2.64993 1020.72 -1.1977C916.67 -5.83875 722.658 10.5451 592.715 172.41C539.424 238.801 477.855 274.254 404.482 280.797C396.275 281.528 387.987 281.883 379.649 281.883C250.703 281.887 106.872 197.237 -32.513 115.212C-101.511 74.6097 -172.856 32.6231 -240.159 2.55042C-315.359 -31.0524 -378.051 -46.1905 -431.805 -43.7117C-481.62 -41.4192 -524.535 -24.5359 -563.007 7.9116L-564.384 7.44568C-525.621 -25.2443 -482.301 -42.2597 -431.946 -44.5784C-377.744 -47.0726 -314.659 -31.8748 -239.111 1.88276C-171.723 31.9953 -100.339 74.0053 -31.3055 114.63C116.798 201.786 269.947 291.914 404.212 279.939C476.994 273.45 538.163 238.166 591.216 172.07C642.942 107.636 709.746 60.1284 789.766 30.868C859.701 5.29886 937.438 -5.78266 1020.86 -2.06078C1107.41 1.79772 1195.8 22.0274 1269.74 54.9029C1339.64 85.9843 1389.6 125.545 1406.78 163.445C1428.24 210.756 1397.78 250.857 1321.02 276.364C1232.76 305.684 1202.71 369.71 1240.62 447.632C1265.47 498.711 1317.65 549.988 1383.8 588.313C1435.2 618.094 1518.94 654.2 1625.98 657.079C1710.08 659.354 1791.07 640.39 1866.8 600.757C1953.6 555.328 2031.62 483.329 2098.72 386.759L2100.24 387.059C2033.07 483.752 1954.91 555.859 1867.94 601.375C1795.94 639.061 1719.12 658.129 1639.41 658.129Z" fill="#D21F35"/>
<path d="M1668.87 649.733C1663.27 649.733 1657.67 649.643 1652.04 649.464C1564.09 646.669 1473.59 620.846 1397.21 576.751C1327.6 536.559 1274.09 483.822 1250.41 432.062C1234.69 397.702 1232.93 365.317 1245.32 338.408C1259.01 308.695 1288.87 286.348 1334.07 271.989C1408.52 248.338 1439.18 210.869 1420.38 166.488C1404.46 128.877 1354 89.0847 1281.93 57.3139C1205.86 23.7735 1114.8 2.83454 1025.54 -1.64909C919.143 -6.98765 721.337 7.77052 591.756 166.664C539.503 230.739 478.542 265.178 405.391 271.945C267.324 284.723 108.239 194.436 -45.6132 107.122C-117.017 66.5987 -190.852 24.6954 -260.291 -5.27598C-337.886 -38.7648 -402.283 -53.7754 -457.177 -51.1491C-506.919 -48.7725 -549.563 -32.4329 -587.561 -1.19765L-588.927 -1.66989C-550.642 -33.144 -507.593 -49.6111 -457.323 -52.0121C-401.986 -54.6602 -337.203 -39.5899 -259.266 -5.94997C-189.74 24.0585 -115.866 65.9826 -44.4227 106.527C109.131 193.671 267.884 283.782 405.112 271.091C477.681 264.374 538.246 230.104 590.26 166.319C641.847 103.065 709.177 56.6336 790.387 28.316C861.321 3.57819 940.495 -6.79495 1025.69 -2.51306C1115.28 1.98504 1206.65 22.9955 1282.97 56.6444C1355.31 88.5365 1405.97 128.501 1421.98 166.296C1440.93 211.076 1410.01 248.875 1334.9 272.734C1248.51 300.179 1218.29 358.177 1251.99 431.855C1275.6 483.477 1328.97 536.075 1398.41 576.163C1474.5 620.091 1564.61 645.814 1652.14 648.599C1737.79 651.315 1819.96 633.153 1896.34 594.599C1983.89 550.409 2062.01 480.019 2128.51 385.383L2130.04 385.688C2063.44 480.447 1985.19 550.949 1897.47 595.228C1825.75 631.428 1748.93 649.733 1668.87 649.733Z" fill="#B22347"/>
<path d="M1698.83 641.645C1692.02 641.645 1685.2 641.52 1678.34 641.268C1477.45 633.885 1305.94 519.254 1262.26 417.285C1232.69 348.259 1264 294.028 1348.16 268.494C1421.09 246.369 1452.15 211.055 1435.64 169.054C1420.93 131.66 1369.81 91.5698 1295.39 59.0626C1216.99 24.821 1123.01 3.12212 1030.76 -2.04003C921.909 -8.134 720.016 4.95139 590.659 161.011C539.433 222.813 479.106 256.249 406.235 263.227C396.74 264.137 387.118 264.575 377.419 264.575C243.037 264.585 89.6212 180.549 -59.0955 99.1013C-132.964 58.6437 -209.347 16.8091 -280.971 -13.0691C-361.007 -46.4593 -427.161 -61.3441 -483.189 -58.583C-532.83 -56.1349 -575.201 -40.3327 -612.724 -10.2763L-614.081 -10.7576C-576.266 -41.0465 -533.499 -56.9736 -483.34 -59.4497C-426.877 -62.2397 -360.345 -47.2862 -279.965 -13.7521C-208.256 16.1632 -131.835 58.0186 -57.9271 98.4952C101.225 185.66 265.782 275.79 405.943 262.373C478.247 255.448 538.176 222.179 589.168 160.659C640.665 98.5296 708.612 53.1477 791.119 25.7701C863.148 1.86913 943.837 -7.77937 1030.93 -2.90401C1123.49 2.27442 1217.78 24.0448 1296.42 58.3913C1371.13 91.0216 1422.45 131.292 1437.23 168.876C1445.23 189.208 1442.41 207.956 1428.87 224.599C1414.23 242.583 1387.35 257.604 1348.97 269.249C1265.47 294.579 1234.45 348.466 1263.85 417.091C1307.41 518.759 1478.31 633.044 1678.45 640.402C1765.78 643.614 1849.13 626.233 1926.22 588.748C2014.58 545.784 2092.84 476.964 2158.82 384.201L2160.34 384.509C2094.27 477.399 2015.87 546.333 1927.32 589.392C1855.94 624.1 1779.16 641.645 1698.83 641.645Z" fill="#313191"/>
<path d="M1729.32 633.843C1721.18 633.843 1713.01 633.671 1704.79 633.328C1498.94 624.728 1316.16 507.549 1274.59 403.505C1262.51 373.249 1263.09 345.066 1276.28 322.003C1290.81 296.608 1319.8 277.47 1362.47 265.124C1454.14 238.59 1461.2 199.484 1450.98 171.35C1437.51 134.267 1385.79 93.9791 1309.07 60.8087C1228.43 25.9484 1131.6 3.51121 1036.41 -2.36926C924.965 -9.25936 718.706 2.09357 589.451 155.448C539.238 215.027 479.568 247.474 407.03 254.644C396.874 255.649 386.566 256.132 376.151 256.133C238.978 256.141 80.5867 172.355 -72.9649 91.1393C-149.355 50.7368 -228.346 8.95834 -302.197 -20.8439C-384.728 -54.1481 -452.66 -68.9307 -509.841 -66.0267C-559.345 -63.5162 -601.429 -48.2423 -638.491 -19.334L-639.84 -19.8225C-602.485 -48.9579 -560.016 -64.3548 -509.992 -66.8907C-452.384 -69.8182 -384.086 -54.9768 -301.212 -21.536C-227.274 8.30063 -148.245 50.0999 -71.8152 90.5232C93.0943 177.746 263.611 267.933 406.734 253.789C478.702 246.675 537.986 214.392 587.964 155.093C639.426 94.0388 708.069 49.6738 791.984 23.2343C865.195 0.166583 947.49 -8.73826 1036.6 -3.23323C1132.09 2.66623 1229.22 25.1703 1310.09 60.1347C1387.1 93.4299 1439.04 133.907 1452.58 171.185C1459.6 190.512 1456.18 208.264 1442.41 223.95C1427.57 240.869 1400.93 254.978 1363.25 265.886C1282.37 289.294 1250.65 339.386 1276.19 403.324C1317.63 507.063 1499.8 623.891 1704.92 632.463C1793.94 636.175 1878.58 619.602 1956.44 583.178C2045.69 541.42 2124.15 474.136 2189.64 383.19L2191.16 383.502C2125.58 474.581 2046.97 541.981 1957.51 583.829C1886.49 617.057 1809.84 633.843 1729.32 633.843Z" fill="#CA193D"/>
<path d="M1760.36 626.344C1750.76 626.344 1741.11 626.117 1731.39 625.66C1631.72 620.989 1529.21 591.606 1442.74 542.924C1363.27 498.183 1306.64 442.694 1287.35 390.684C1276.68 361.896 1278.22 336.297 1291.94 314.596C1306.8 291.079 1335.4 273.348 1376.93 261.891C1448.21 242.233 1479.15 211.633 1466.41 173.406C1454.19 136.727 1401.92 96.3291 1322.98 62.5734C1240.2 27.1712 1140.61 4.01841 1042.55 -2.61929C928.317 -10.3526 717.398 -0.810816 588.111 149.97C538.895 207.374 479.903 238.846 407.765 246.191C396.93 247.293 385.927 247.824 374.78 247.824C234.768 247.828 71.2768 164.258 -87.2253 83.2419C-166.195 42.8784 -247.855 1.13969 -323.984 -28.5956C-409.066 -61.8284 -478.799 -76.5114 -537.147 -73.4826C-586.5 -70.9205 -628.289 -56.1677 -664.899 -28.3785L-666.232 -28.876C-629.336 -56.8861 -587.161 -71.7591 -537.304 -74.3465C-478.526 -77.3989 -408.438 -62.6598 -323.019 -29.2949C-246.804 0.472034 -165.105 42.2324 -86.0959 82.6158C84.7218 169.927 261.349 260.211 407.461 245.338C479.042 238.052 537.646 206.737 586.629 149.609C638.104 89.5783 707.533 46.2112 792.987 20.7144C867.496 -1.51738 951.52 -9.65595 1042.76 -3.48145C1141.11 3.17705 1240.99 26.3949 1324 61.8976C1403.24 95.7827 1455.73 136.371 1468.02 173.253C1477 200.197 1468.61 237.582 1377.68 262.662C1298.04 284.627 1266.53 330.032 1288.96 390.517C1327.06 493.301 1518.19 614.796 1731.53 624.796C1822.38 629.053 1908.32 613.277 1987 577.902C2077.23 537.346 2155.94 471.558 2220.98 382.369L2222.5 382.684C2157.36 472.01 2078.49 537.914 1988.05 578.566C1917.43 610.315 1840.97 626.344 1760.36 626.344Z" fill="#CC4DAE"/>
<path d="M1791.97 619.134C1780.77 619.134 1769.48 618.838 1758.11 618.247C1654.65 612.864 1548.25 582.416 1458.51 532.509C1377.02 487.191 1317.97 429.722 1300.54 378.782C1281.09 321.924 1313.43 279.309 1391.6 258.789C1461.72 240.38 1492.97 211.488 1481.98 175.235C1460.58 104.676 1270.96 13.5484 1049.23 -2.79572C932.026 -11.4346 716.103 -3.77278 586.637 144.579C538.402 199.857 480.112 230.37 408.426 237.867C396.913 239.072 385.192 239.648 373.306 239.648C230.397 239.655 61.6904 156.258 -101.888 75.4037C-183.497 35.0664 -267.884 -6.64517 -346.338 -36.3271C-434.018 -69.501 -505.58 -84.0918 -565.114 -80.949C-614.293 -78.3507 -655.778 -64.1046 -691.944 -37.4036L-693.267 -37.9112C-656.812 -64.8274 -614.945 -79.1866 -565.275 -81.8129C-505.315 -84.9766 -433.407 -70.3325 -345.394 -37.0354C-266.853 -7.32097 -182.427 34.4105 -100.779 74.7668C76.1051 162.198 259.011 252.601 408.113 237.014C479.246 229.576 537.164 199.22 585.16 144.212C636.708 85.1471 707.024 42.7481 794.163 18.1966C870.077 -3.19378 955.963 -10.5471 1049.45 -3.65518C1150.6 3.80035 1253.14 27.7103 1338.18 63.669C1419.55 98.0733 1472.55 138.687 1483.59 175.097C1494.71 211.764 1463.15 240.975 1392.32 259.568C1314.86 279.9 1282.84 322.183 1302.15 378.626C1337.49 481.968 1540.07 606.03 1758.26 617.38C1850.97 622.207 1938.32 607.241 2017.91 572.911C2109.19 533.541 2188.24 469.217 2252.88 381.723L2254.4 382.042C2189.65 469.676 2110.43 534.12 2018.94 573.587C1948.77 603.855 1872.55 619.132 1791.97 619.134Z" fill="#C7424B"/>
<path d="M1824.17 612.209C1811.21 612.209 1798.13 611.832 1784.94 611.077C1677.76 604.944 1567.54 573.491 1474.58 522.506C1389.94 476.086 1329.96 418.235 1314.13 367.753C1297.45 314.592 1330.25 274.842 1406.47 255.823C1475.56 238.581 1507.1 211.28 1497.69 176.871C1487.94 141.225 1434.71 100.874 1351.65 66.1635C1266.18 30.4419 1158.6 5.28076 1056.52 -2.86686C936.147 -12.4737 714.838 -6.78325 585.043 139.279C537.769 192.478 480.19 222.047 409.013 229.676C256.108 246.063 66.447 155.349 -116.963 67.6201C-201.269 27.2963 -288.445 -14.4034 -369.268 -44.041C-459.604 -77.1716 -533.039 -91.6855 -593.751 -88.4367C-642.73 -85.8104 -683.909 -72.0673 -719.637 -46.4221L-720.951 -46.9405C-684.932 -72.792 -643.379 -86.6464 -593.916 -89.2998C-532.803 -92.5748 -459.009 -78.0075 -368.344 -44.7566C-287.434 -15.0865 -200.218 26.6314 -115.875 66.9741C67.235 154.559 256.558 245.123 408.69 228.824C479.329 221.254 536.532 191.841 583.569 138.907C713.812 -7.6608 935.942 -13.3676 1056.75 -3.72631C1160.62 4.56243 1265.71 29.1401 1352.66 65.4805C1436.04 100.327 1489.49 140.883 1499.3 176.745C1508.83 211.571 1476.97 239.188 1407.16 256.608C1331.66 275.447 1299.2 314.868 1315.73 367.61C1348.25 471.311 1555.89 597.095 1785.11 610.215C1928.95 618.437 2132.47 585.404 2285.32 381.255L2286.84 381.575C2222.45 467.577 2142.82 530.598 2050.18 568.887C1980.5 597.683 1904.63 612.207 1824.17 612.209Z" fill="#9B2C1E"/>
<path d="M1856.98 605.583C1842.11 605.583 1827.07 605.108 1811.86 604.158C1574.82 589.35 1357.15 459.425 1328.08 357.537C1313.88 307.755 1347.07 270.622 1421.55 252.977C1489.72 236.827 1521.54 211.011 1513.57 178.318C1505.03 143.293 1451.41 103.087 1366.47 68.0117C1279.24 31.9888 1169.17 6.16542 1064.48 -2.83984C940.712 -13.4862 713.595 -9.86112 583.317 134.052C536.994 185.227 480.146 213.866 409.526 221.607C396.652 223.019 383.475 223.693 370.074 223.693C221.213 223.702 41.6749 140.535 -132.449 59.8849C-219.51 19.5611 -309.535 -22.1359 -392.775 -51.7463C-485.816 -84.8443 -561.145 -99.303 -623.058 -95.9494C-671.814 -93.3068 -712.681 -80.0576 -747.987 -55.4402L-749.28 -55.9685C-713.686 -80.7841 -672.455 -94.1454 -623.223 -96.8133C-560.902 -100.195 -485.239 -85.683 -391.869 -52.4692C-308.543 -22.8262 -218.479 18.8889 -131.379 59.229C58.1189 147.001 254.071 237.761 409.2 220.756C479.285 213.075 535.76 184.59 581.847 133.675C712.586 -10.7459 940.521 -14.38 1064.74 -3.69658C1169.69 5.32949 1280.03 31.2171 1367.47 67.3259C1452.75 102.541 1506.59 142.955 1515.18 178.207C1523.26 211.319 1491.11 237.448 1422.21 253.771C1348.46 271.243 1315.6 308.046 1329.69 357.408C1358.68 458.991 1575.7 588.53 1812.06 603.297C1959.05 612.48 2166.2 581.365 2318.34 380.977L2319.85 381.301C2255.76 465.727 2175.65 527.353 2081.76 564.474C2012.63 591.805 1937.19 605.583 1856.98 605.583Z" fill="#562D7C"/>
<path d="M1890.42 599.241C1873.45 599.241 1856.27 598.651 1838.87 597.474C1724.48 589.72 1606.84 556.419 1507.62 503.702C1416.81 455.453 1355.04 397.275 1342.38 348.077C1336.6 325.618 1341.12 305.946 1355.82 289.607C1371.63 272.026 1398.89 258.787 1436.85 250.262C1504.21 235.134 1536.29 210.702 1529.63 179.61C1522.26 145.264 1468.32 105.278 1381.64 69.9104C1292.81 33.665 1180.38 7.20292 1073.18 -2.69346C945.732 -14.4571 712.394 -13.0024 581.47 128.897C536.077 178.1 479.976 205.825 409.961 213.658C396.4 215.174 382.493 215.9 368.323 215.9C216.402 215.906 31.2307 132.797 -148.37 52.1957C-238.246 11.8603 -331.183 -29.8486 -416.888 -59.4427C-512.687 -92.5217 -589.93 -106.925 -653.056 -103.488C-701.578 -100.844 -742.123 -88.0752 -777.012 -64.4592L-778.294 -64.9966C-743.113 -88.8071 -702.204 -101.682 -653.22 -104.352C-589.726 -107.819 -512.124 -93.3631 -416.001 -60.1719C-330.211 -30.5479 -237.234 11.179 -147.319 51.5308C48.7362 139.515 251.46 230.497 409.626 212.808C479.12 205.033 534.851 177.461 580.008 128.512C632.127 72.0247 705.803 32.3985 798.987 10.7348C878.786 -7.81942 973.692 -12.7545 1073.45 -3.54839C1180.91 6.36879 1293.6 32.8915 1382.63 69.2202C1469.67 104.732 1523.83 144.933 1531.25 179.511C1538 211.027 1505.58 235.769 1437.48 251.063C1365.29 267.278 1332.09 301.689 1343.99 347.958C1356.61 396.976 1418.21 454.966 1508.77 503.086C1607.73 555.669 1725.04 588.884 1839.07 596.611C1989.42 606.789 2200.4 577.636 2351.92 380.866L2353.43 381.195C2289.58 464.105 2208.93 524.375 2113.69 560.331C2045.17 586.205 1970.26 599.24 1890.42 599.241Z" fill="#34308F"/>
<path d="M1924.52 593.183C1905.27 593.183 1885.73 592.461 1865.91 591.011C1748.01 582.388 1626.77 548.237 1524.53 494.846C1430.73 445.86 1368.1 387.715 1356.99 339.306C1352.13 318.135 1357.21 299.651 1372.09 284.363C1388.07 267.945 1415.08 255.603 1452.36 247.678C1519.02 233.506 1551.36 210.369 1545.88 180.768C1532.56 108.794 1307.47 19.7783 1082.71 -2.40375C951.325 -15.367 711.242 -16.2075 579.486 123.835C535.011 171.113 479.672 197.935 410.312 205.837C396.069 207.46 381.44 208.234 366.492 208.234C211.468 208.238 20.5164 125.145 -164.696 44.5577C-257.45 4.19865 -353.36 -37.5328 -441.579 -67.1224C-540.191 -100.2 -619.398 -114.571 -683.731 -111.052C-732.007 -108.414 -772.238 -96.1212 -806.726 -73.4679L-807.991 -74.0143C-773.217 -96.8576 -732.629 -109.255 -683.901 -111.918C-619.176 -115.455 -539.642 -101.04 -440.711 -67.8588C-352.407 -38.2393 -256.457 3.51109 -163.665 43.8837C39.1104 132.116 248.789 223.357 409.969 204.987C478.819 197.145 533.79 170.471 578.031 123.446C630.474 67.7014 705.538 28.9545 801.135 8.28422C882.899 -9.39608 980.37 -13.3867 1083.01 -3.25597C1192.85 7.58219 1307.73 34.7165 1398.19 71.1844C1486.81 106.918 1541.24 146.827 1547.5 180.682C1553.06 210.71 1520.36 234.155 1452.96 248.483C1362.2 267.778 1351.56 308.466 1358.61 339.199C1369.67 387.421 1432.13 445.374 1525.67 494.225C1627.66 547.486 1748.57 581.555 1866.13 590.149C2019.96 601.398 2235.07 574.239 2386.12 380.942L2387.62 381.279C2323.97 462.73 2242.67 521.674 2145.98 556.47C2078.12 580.887 2003.84 593.183 1924.52 593.183Z" fill="#CC818F"/>
<path d="M1959.29 587.409C1937.57 587.409 1915.46 586.53 1892.99 584.765C1830.38 579.849 1766.79 568.152 1704 549.996C1646.79 533.458 1590.67 511.444 1541.72 486.336C1444.99 436.728 1381.51 378.726 1371.91 331.185C1363.45 289.286 1396.72 259.561 1468.1 245.22C1534.16 231.947 1566.75 210.019 1562.35 181.803C1557.24 148.972 1502.87 109.649 1413.2 73.9201C1321.7 37.4639 1205.07 9.8085 1093.18 -1.95696C957.54 -16.2212 710.159 -19.4943 577.382 118.843C533.803 164.25 479.237 190.188 410.569 198.138C395.656 199.866 380.301 200.686 364.58 200.689C206.396 200.695 9.52369 117.578 -181.456 36.9582C-306.886 -15.9896 -436.586 -70.7404 -549.998 -98.896C-678.297 -130.747 -769.535 -125.535 -837.12 -82.4841L-838.368 -83.0423C-802.37 -105.971 -759.848 -118.005 -708.364 -119.828C-662.508 -121.458 -610.464 -114.865 -549.307 -99.6831C-435.723 -71.4831 -305.947 -16.7007 -180.443 36.2797C29.2182 124.783 246.018 216.307 410.226 197.291C478.385 189.398 532.591 163.609 575.93 118.447C628.774 63.3913 705.382 25.5103 803.627 5.85682C887.537 -10.9297 987.774 -13.926 1093.5 -2.80918C1205.61 8.9789 1322.49 36.6922 1414.18 73.2253C1504.22 109.102 1558.82 148.653 1563.98 181.732C1568.44 210.374 1535.49 232.61 1468.68 246.031C1398.06 260.219 1365.16 289.632 1373.53 331.093C1383.1 378.439 1446.39 436.239 1542.85 485.711C1647.78 539.53 1772.21 574.402 1893.22 583.905C2050.78 596.273 2270.22 571.151 2420.91 381.2L2422.41 381.536C2358.91 461.59 2276.88 519.238 2178.61 552.88C2111.5 575.852 2037.96 587.409 1959.29 587.409Z" fill="#4C2E81"/>
<path d="M1994.76 581.925C1970.35 581.925 1945.44 580.862 1920.05 578.729C1855.77 573.333 1790.43 561.19 1725.85 542.639C1667.01 525.736 1609.37 503.44 1559.15 478.156C1459.58 428.027 1395.27 370.273 1387.13 323.661C1380.23 284.15 1413.76 256.221 1484.08 242.893C1549.64 230.467 1582.48 209.668 1579.06 182.741C1574.99 150.734 1520.55 111.849 1429.68 76.0552C1337.17 39.6153 1218.72 11.4089 1104.7 -1.32906C964.449 -16.9992 709.15 -22.8615 575.135 113.926C532.433 157.513 478.655 182.579 410.721 190.561C395.149 192.39 379.066 193.258 362.576 193.261C201.182 193.267 -1.77139 110.091 -198.666 29.4041C-327.316 -23.3157 -460.346 -77.8294 -576.3 -106.113C-707.495 -138.112 -800.266 -133.473 -868.243 -91.5101L-869.478 -92.0774C-833.268 -114.429 -790.216 -126.032 -737.857 -127.551C-691.21 -128.902 -638.14 -122.151 -575.623 -106.902C-459.499 -78.5776 -326.394 -24.0331 -197.672 28.7156C19.0457 117.525 243.13 209.359 410.373 189.713C477.802 181.79 531.225 156.869 573.686 113.526C627.013 59.095 705.338 22.0644 806.492 3.45583C892.759 -12.4142 995.99 -14.3638 1105.03 -2.17946C1219.27 10.5839 1337.95 38.8436 1430.65 75.3577C1521.9 111.302 1576.59 150.421 1580.68 182.683C1584.16 210.038 1550.94 231.139 1484.62 243.71C1415.08 256.89 1381.93 284.509 1388.76 323.58C1396.86 369.988 1460.98 427.538 1560.26 477.525C1666.49 531.004 1797.72 567.58 1920.3 577.872C2081.79 591.429 2305.85 568.392 2456.31 381.64L2457.81 381.983C2394.39 460.697 2311.54 517.079 2211.57 549.561C2145.29 571.096 2072.61 581.925 1994.76 581.925Z" fill="#C9203A"/>
<path d="M2030.97 576.717C2003.64 576.717 1975.66 575.44 1947.07 572.882C1820.92 561.596 1685.96 524.194 1576.79 470.271C1474.47 419.726 1409.35 362.308 1402.62 316.676C1397.11 279.344 1430.89 253.063 1500.29 240.677C1565.43 229.05 1598.53 209.311 1596.01 183.592C1589.5 117.322 1356.89 27.8571 1117.39 -0.500314C972.135 -17.6966 708.238 -26.3264 572.766 109.081C530.93 150.901 477.941 175.115 410.778 183.105C239.799 203.449 7.919 111.144 -216.324 21.8835C-348.243 -30.6264 -484.656 -84.9276 -603.204 -113.35C-737.336 -145.51 -831.668 -141.441 -900.068 -100.549L-901.284 -101.128C-864.853 -122.908 -821.256 -134.085 -768.008 -135.301C-720.567 -136.383 -666.433 -129.462 -602.533 -114.142C-483.824 -85.6803 -347.34 -31.352 -215.347 21.1869C8.6017 110.332 240.181 202.509 410.421 182.257C477.094 174.328 529.726 150.258 571.326 108.674C625.218 54.8105 705.452 18.6112 809.803 1.08651C898.659 -13.8381 1005.14 -14.6813 1117.74 -1.34801C1233.94 12.4087 1354.19 41.1832 1447.65 77.5932C1539.88 113.526 1594.55 152.145 1597.64 183.546C1600.2 209.696 1566.72 229.735 1500.81 241.498C1432.19 253.746 1398.8 279.718 1404.25 316.609C1410.95 362.028 1475.87 419.233 1577.9 469.634C1686.84 523.446 1821.49 560.766 1947.34 572.027C2112.99 586.842 2342 565.952 2492.37 382.26L2493.87 382.608C2430.48 460.041 2346.71 515.185 2244.88 546.506C2179.51 566.614 2107.84 576.717 2030.97 576.717Z" fill="#B541A7"/>
<path d="M2067.91 571.797C2037.43 571.797 2006.1 570.273 1974 567.226C1693.19 540.545 1429.38 401.272 1418.38 310.203C1414.12 274.865 1448.13 250.103 1516.75 238.592C1581.57 227.721 1614.92 208.975 1613.21 184.379C1611.1 154.146 1556.81 116.342 1464.26 80.6593C1370.48 44.4999 1249.14 15.3038 1131.37 0.562826C874.977 -31.5301 670.463 6.28136 570.256 104.302C529.264 144.405 477.077 167.781 410.722 175.759C393.87 177.786 376.376 178.746 358.363 178.746C190.393 178.755 -25.2171 95.3315 -234.424 14.3937C-369.67 -37.9289 -509.524 -92.0356 -630.71 -120.606C-767.843 -152.937 -863.784 -149.442 -932.639 -109.605L-933.834 -110.193C-897.164 -131.409 -853.007 -142.168 -798.836 -143.078C-750.587 -143.898 -695.366 -136.799 -630.049 -121.4C-508.705 -92.7901 -368.782 -38.659 -233.464 13.6926C-2.11423 103.194 237.107 195.742 410.365 174.911C476.233 166.991 528.069 143.757 568.826 103.886C623.374 50.526 705.734 15.1536 813.618 -1.24836C905.314 -15.1878 1015.32 -14.8549 1131.74 -0.282152C1249.72 14.4842 1371.27 43.7309 1465.22 79.9555C1558.18 115.796 1612.71 153.845 1614.84 184.346C1616.58 209.376 1582.83 228.42 1517.24 239.421C1449.42 250.798 1415.79 275.254 1420.01 310.147C1430.97 400.918 1694.14 539.753 1974.29 566.371C2144.34 582.527 2378.65 563.842 2529.08 383.059L2530.57 383.414C2467.15 459.628 2382.35 513.564 2278.52 543.723C2214.17 562.411 2143.62 571.797 2067.91 571.797Z" fill="#E8229B"/>
<path d="M2105.62 567.154C2071.7 567.154 2036.72 565.347 2000.77 561.732C1868.34 548.41 1726.88 509.633 1612.66 455.349C1505.14 404.25 1438.5 347.747 1434.4 304.199C1431.24 270.687 1465.49 247.325 1533.46 236.637C1598.04 226.479 1631.66 208.662 1630.69 185.111C1629.47 155.818 1575.45 118.66 1482.48 83.1577C1388.49 47.2742 1266.14 17.6547 1146.8 1.89417C880.36 -33.2855 669.259 2.32299 567.609 99.5923C527.439 138.033 476.06 160.584 410.538 168.535C393.075 170.655 374.897 171.657 356.139 171.66C184.811 171.666 -37.3867 88.0566 -252.994 6.93599C-391.621 -45.2201 -534.968 -99.1549 -658.847 -127.888C-799.036 -160.404 -896.621 -157.481 -965.953 -118.682L-967.132 -119.281C-930.209 -139.945 -885.468 -150.283 -830.364 -150.892C-781.273 -151.43 -724.954 -144.169 -658.194 -128.684C-534.165 -99.9148 -390.748 -45.9566 -252.053 6.22762C-13.1273 96.121 233.938 189.078 410.178 167.687C475.221 159.797 526.251 137.383 566.184 99.1707C621.492 46.2456 706.213 11.6928 817.994 -3.53214C912.822 -16.4484 1026.66 -14.8643 1147.19 1.051C1266.73 16.8369 1389.28 46.5052 1483.43 82.4539C1576.82 118.113 1631.09 155.524 1632.31 185.092C1633.31 209.077 1599.28 227.188 1533.92 237.468C1466.76 248.03 1432.91 271.09 1436.02 304.156C1440.11 347.476 1506.55 403.755 1613.74 454.7C1727.75 508.886 1868.93 547.585 2001.07 560.88C2248.14 585.728 2448.92 522.929 2566.45 384.037L2567.94 384.393C2504.42 459.453 2418.46 512.208 2312.45 541.194C2249.23 558.48 2179.96 567.154 2105.62 567.154Z" fill="#922659"/>
<path d="M2144.12 562.791C2106.49 562.791 2067.53 560.659 2027.36 556.391C1891.92 542.002 1747.39 502.59 1630.85 448.262C1520.92 397.02 1453.56 341.08 1450.67 298.618C1448.5 266.78 1483 244.711 1550.43 234.792C1614.85 225.312 1648.75 208.373 1648.45 185.804C1648.07 157.488 1594.48 121.045 1501.4 85.8196C1407.55 50.3016 1284.54 20.3112 1163.88 3.53648C1032.65 -14.7093 711.569 -42.3248 564.84 94.9443C525.474 131.776 474.907 153.523 410.238 161.425C392.187 163.633 373.342 164.677 353.854 164.677C179.112 164.686 -49.8553 80.8493 -272.045 -0.495712C-414.111 -52.508 -561.014 -106.291 -687.632 -135.196C-830.93 -167.913 -930.2 -165.557 -1000.04 -127.783L-1001.2 -128.394C-964.007 -148.509 -918.671 -158.435 -862.605 -158.741C-812.634 -159.011 -755.208 -151.57 -686.988 -135.995C-560.223 -107.054 -413.252 -53.2471 -271.121 -1.21132C-24.4411 89.0991 230.633 182.492 409.878 160.578C474.073 152.733 524.295 131.123 563.428 94.5164C619.6 41.9613 706.951 8.22457 823.046 -5.7619C921.33 -17.6015 1039.33 -14.6767 1164.29 2.69603C1285.13 19.4961 1408.35 49.5344 1502.34 85.1104C1595.85 120.502 1649.7 157.201 1650.08 185.797C1650.38 208.804 1616.07 226.034 1550.86 235.628C1484.25 245.426 1450.16 267.2 1452.3 298.586C1455.18 340.813 1522.32 396.523 1631.92 447.609C1748.26 501.84 1892.51 541.178 2027.68 555.539C2281.83 582.544 2486.68 522.047 2604.5 385.197L2605.98 385.559C2542.3 459.523 2455.07 511.12 2346.69 538.92C2284.71 554.819 2216.9 562.791 2144.12 562.791Z" fill="#EB163B"/>
<path d="M2183.45 558.705C2141.79 558.705 2098.49 556.201 2053.67 551.184C1915.3 535.695 1767.86 495.679 1649.15 441.4C1536.97 390.102 1468.95 334.787 1467.2 293.434C1465.92 263.139 1500.66 242.263 1567.66 233.068C1632.01 224.235 1666.19 208.121 1666.51 186.466C1667.34 128.883 1436.78 42.6424 1182.77 5.52847C1045.88 -14.4724 711.351 -46.2459 561.923 90.361C523.342 125.634 473.586 146.589 409.8 154.428C391.178 156.717 371.694 157.801 351.494 157.801C173.294 157.81 -62.6243 73.7039 -291.571 -7.90433C-437.133 -59.79 -587.651 -113.444 -717.059 -142.536C-863.522 -175.461 -964.52 -173.672 -1034.89 -136.908L-1036.03 -137.529C-998.56 -157.106 -952.612 -166.625 -895.563 -166.625C-844.736 -166.627 -786.142 -159.007 -716.425 -143.335C-586.873 -114.211 -436.29 -60.5354 -290.666 -8.62717C-36.057 82.1302 227.199 175.979 409.434 153.583C472.755 145.801 522.174 124.978 560.513 89.9232C617.675 37.6693 707.946 4.75044 828.829 -7.92061C930.939 -18.6258 1053.48 -14.2598 1183.2 4.69254C1437.84 41.8987 1668.98 128.541 1668.14 186.472C1667.81 208.565 1633.21 224.967 1568.07 233.909C1501.89 242.993 1467.57 263.57 1468.83 293.416C1470.57 334.525 1538.38 389.6 1650.21 440.739C1768.72 494.929 1915.9 534.873 2054 550.335C2315.74 579.64 2525.01 521.465 2643.24 386.545L2644.72 386.911C2580.82 459.842 2492.15 510.305 2381.21 536.902C2320.62 551.426 2254.44 558.705 2183.45 558.705Z" fill="#A748AA"/>
<path d="M2223.6 554.905C2177.6 554.905 2129.54 551.97 2079.63 546.096C1938.44 529.479 1788.24 488.894 1667.56 434.748C1553.28 383.476 1484.65 328.851 1483.98 288.629C1483.5 259.751 1518.49 239.986 1585.17 231.472C1650.43 223.142 1683.97 208.222 1684.86 187.126C1685.97 160.862 1633.75 126.078 1541.58 91.69C1449.16 57.2169 1326.01 26.6874 1203.68 7.93228C1060.61 -14.0028 711.385 -50.3242 558.871 85.8449C521.06 119.608 472.111 139.791 409.23 147.55C390.074 149.915 369.967 151.031 349.082 151.031C167.377 151.043 -75.6857 66.6248 -311.577 -15.2901C-460.694 -67.0717 -614.889 -120.617 -747.135 -149.906C-896.833 -183.056 -999.591 -181.836 -1070.53 -146.07L-1071.65 -146.701C-1033.87 -165.747 -987.244 -174.842 -929.244 -174.555C-877.526 -174.284 -817.753 -166.483 -746.51 -150.706C-614.124 -121.388 -459.865 -67.8217 -310.687 -16.0175C-47.9687 75.2121 223.692 169.549 408.865 146.705C471.291 139.002 519.9 118.95 557.47 85.3998C615.749 33.3712 709.281 1.2783 835.476 -9.98867C941.816 -19.487 1069.3 -13.5767 1204.13 7.09635C1326.63 25.8786 1449.96 56.4525 1542.5 90.979C1635.13 125.536 1687.61 160.587 1686.49 187.145C1685.6 208.382 1650.69 224.001 1585.55 232.318C1519.69 240.725 1485.14 260.194 1485.61 288.62C1486.28 328.594 1554.69 382.971 1668.61 434.084C1789.1 488.143 1939.04 528.66 2079.98 545.249C2349.87 577.011 2563.91 521.19 2682.71 388.074L2684.18 388.447C2619.96 460.407 2529.73 509.761 2415.98 535.135C2356.93 548.308 2292.58 554.905 2223.6 554.905Z" fill="#AF571E"/>
<path d="M2264.61 551.379C2213.91 551.379 2160.67 547.954 2105.15 541.099C1961.24 523.324 1808.48 482.205 1686.03 428.279C1569.85 377.119 1500.68 323.242 1501.02 284.166C1501.26 256.595 1536.51 237.862 1602.96 229.995C1668.29 222.265 1702.13 208.058 1703.54 187.777C1707.23 134.879 1484.46 52.1727 1226.81 10.7832C1086.72 -11.7209 954.106 -19.2877 843.298 -11.0985C711.708 -1.37309 614.937 29.7445 555.68 81.3913C519.13 113.248 469.616 133.231 408.512 140.785C388.845 143.217 368.152 144.366 346.606 144.366C161.353 144.375 -89.0508 59.6074 -332.074 -22.6522C-484.809 -74.3506 -642.744 -127.81 -777.89 -157.305C-928.787 -190.236 -1036.43 -189.567 -1106.98 -155.258L-1108.08 -155.899C-1069.99 -174.42 -1022.73 -183.126 -963.676 -182.521C-911.046 -181.982 -850.072 -173.997 -777.272 -158.108C-641.992 -128.584 -483.994 -75.1051 -331.2 -23.3868C-60.1977 68.3458 220.033 163.204 408.144 139.94C469.661 132.334 517.464 113.035 554.289 80.9372C613.814 29.0588 710.976 -2.19545 843.075 -11.957C954.11 -20.1653 1086.97 -12.5894 1227.29 9.95179C1485.57 51.4453 1708.88 134.555 1705.17 187.81C1703.72 208.535 1669.46 223.015 1603.31 230.845C1537.69 238.613 1502.88 257.053 1502.65 284.171C1501.97 363.39 1794.2 501.801 2105.52 540.252C2266.88 560.183 2561.65 567.131 2722.89 389.783L2724.36 390.16C2659.75 461.223 2567.77 509.486 2450.97 533.609C2393.64 545.451 2331.32 551.379 2264.61 551.379Z" fill="#CA1840"/>
<path d="M2306.52 548.135C2250.71 548.135 2191.81 544.149 2130.13 536.166C1983.63 517.213 1828.51 475.593 1704.52 421.98C1586.65 371.007 1517.04 317.941 1518.31 280.025C1519.19 253.663 1554.72 235.894 1621.03 228.643C1686.5 221.484 1720.65 207.956 1722.54 188.439C1724.88 164.348 1674.86 131.54 1585.32 98.43C1496.11 65.4451 1374.77 34.7327 1252.43 14.1674C1150.65 -2.94117 998.551 -21.5316 851.954 -12.9325C713.798 -4.82925 612.997 25.4253 552.345 76.9952C513.278 110.212 461.373 129.395 393.661 135.636C333.528 141.181 262.315 136.297 175.955 120.701C15.8971 91.7995 -171.67 29.8791 -353.063 -30.0013C-509.48 -81.6363 -671.22 -135.032 -809.326 -164.749C-963.528 -197.928 -1073.09 -197.842 -1144.25 -164.487L-1145.32 -165.138C-1106.91 -183.142 -1059.03 -191.466 -998.869 -190.544C-945.294 -189.731 -883.095 -181.558 -808.713 -165.552C-670.481 -135.81 -508.675 -82.3963 -352.204 -30.7404C12.3206 89.5966 389.257 214.033 550.962 76.532C611.894 24.7278 713.099 -5.66247 851.775 -13.7965C998.643 -22.41 1150.99 -3.7961 1252.92 13.3378C1375.42 33.9294 1496.91 64.6833 1586.24 97.7171C1677.59 131.491 1726.57 163.728 1724.17 188.483C1722.24 208.447 1687.65 222.244 1621.36 229.492C1555.88 236.654 1520.81 254.132 1519.94 280.039C1518.67 317.69 1588.06 370.499 1705.55 421.306C1829.35 474.841 1984.24 516.398 2130.51 535.323C2297.32 556.903 2601.4 566.938 2763.83 391.682L2765.29 392.066C2700.2 462.294 2606.29 509.483 2486.15 532.325C2430.73 542.861 2370.67 548.135 2306.52 548.135Z" fill="#D52F23"/>
</g>
<defs>
<clipPath id="clip0_72_11">
<rect width="1739" height="579" fill="white" transform="translate(-64)"/>
</clipPath>
</defs>
</svg>
