<svg width="2355" height="605" viewBox="0 0 2355 605" fill="none" xmlns="http://www.w3.org/2000/svg">
<g clip-path="url(#clip0_74_44)">
<path d="M867.628 602C811.1 602.002 737.088 594.216 644.156 578.574C513.822 556.634 364.127 522.551 219.367 489.589C-25.3964 433.856 -256.586 381.218 -335.621 401.967C-382.534 414.283 -373.25 451.449 -307.237 515.592L-309.272 515.834C-375.63 451.356 -384.679 413.922 -336.939 401.387C-256.665 380.312 -24.8553 433.099 220.566 488.98C365.272 521.93 514.902 556 645.11 577.918C792.367 602.705 891.69 607.705 948.77 593.207C991.881 582.255 1011.84 559.562 1008.1 525.759C1003.99 488.624 971.172 436.58 910.54 371.072C847.649 303.125 812.641 249.782 806.486 212.526C800.909 178.792 818.872 157.269 859.875 148.553C997.245 119.353 1364.64 237.151 1607.75 315.1C1726.8 353.269 1820.88 383.416 1835.53 379.31C1852.79 374.482 1754.86 320.259 1679.7 279.894C1533.56 201.41 1480.52 165.002 1502.33 158.149C1524.23 151.272 1617.32 174.886 1746.19 207.573C1855.4 235.276 1991.32 269.75 2116.11 292.961C2261.81 320.061 2364.47 326.848 2429.94 313.714C2506.92 298.273 2531.04 254.02 2501.64 182.188L2503.78 182.087C2519.18 219.708 2520.03 250.044 2506.32 272.254C2493.7 292.695 2468.37 306.855 2431.04 314.345C2364.84 327.625 2261.5 320.838 2115.07 293.604C1990.15 270.367 1854.17 235.875 1744.9 208.16C1621.69 176.908 1524.36 152.215 1503.79 158.688C1483.18 165.162 1538 202.421 1681.52 279.502C1836.71 362.841 1847.15 377.008 1836.91 379.873C1820.7 384.396 1730.77 355.549 1606.27 315.631C1363.63 237.838 996.951 120.278 861.018 149.174C820.729 157.737 803.111 179.038 808.635 212.486C814.781 249.681 849.757 302.963 912.596 370.852C1029.81 497.496 1042.06 570.421 950.063 593.794C928.548 599.26 901.158 602 867.628 602Z" fill="#9B80B4"/>
<path d="M845.245 592C788.567 592 715.158 584.762 623.7 570.23C491.671 549.25 340.119 516.249 193.56 484.334C-54.0564 430.412 -287.94 379.483 -368.091 400.894C-415.071 413.443 -406.67 449.816 -342.417 512.091L-344.451 512.332C-409.047 449.727 -417.217 413.087 -369.425 400.321C-288.07 378.587 -53.5603 429.654 194.723 483.719C341.226 515.622 492.715 548.61 624.614 569.569C773.806 593.277 874.54 597.519 932.563 582.538C975.846 571.363 996.317 548.888 993.416 515.737C990.23 479.353 958.816 428.641 900.046 365.012C838.934 298.858 805.349 246.789 800.217 210.255C795.572 177.16 814.187 155.856 855.55 146.936C995.237 116.812 1365.37 231.321 1610.29 307.095C1730.06 344.148 1824.67 373.417 1839.49 369.174C1856.82 364.211 1759.49 311.47 1684.77 272.228C1539.64 196.005 1487.01 160.493 1508.78 153.48C1530.79 146.392 1624.8 169.263 1754.91 200.915C1865.22 227.755 2002.51 261.157 2128.78 283.428C2276.24 309.44 2380.36 315.505 2447.12 301.981C2524.76 286.251 2550.41 242.787 2523.35 172.798L2525.49 172.703C2539.65 209.348 2539.5 238.994 2525.04 260.824C2511.73 280.921 2485.88 294.98 2448.23 302.609C2424.94 307.327 2397.18 309.693 2364.73 309.693C2303.22 309.694 2224.8 301.188 2127.79 284.076C2001.38 261.78 1864.02 228.36 1753.65 201.509C1629.24 171.24 1530.98 147.336 1510.26 154.009C1489.68 160.639 1544.06 196.978 1686.58 271.832C1840.86 352.857 1851.15 366.789 1840.88 369.73C1839.69 370.071 1838.1 370.237 1836.14 370.237C1811.2 370.24 1724.95 343.556 1608.84 307.635C1364.4 232.012 995.019 117.728 856.71 147.552C816.049 156.321 797.763 177.406 802.372 210.222C807.493 246.692 841.045 298.698 902.102 364.794C1015.79 487.871 1026.18 559.285 933.867 583.118C910.954 589.035 881.522 592 845.245 592Z" fill="#A4244F"/>
<path d="M822.415 583C765.652 583.002 692.942 576.269 603.056 562.764C469.207 542.655 315.659 510.594 167.167 479.59C-83.52 427.249 -320.31 377.807 -401.585 399.982C-448.598 412.809 -441.055 448.543 -378.528 509.219L-380.564 509.46C-443.428 448.455 -450.747 412.458 -402.937 399.413C-320.487 376.913 -83.062 426.484 168.299 478.968C316.728 509.959 470.213 542.006 603.923 562.096C755.185 584.822 857.394 588.315 916.38 572.775C959.803 561.337 980.763 538.989 978.678 506.351C976.385 470.561 946.348 420.966 889.396 358.942C830.031 294.293 797.838 243.278 793.718 207.31C789.982 174.71 809.237 153.535 850.946 144.374C993.04 113.165 1366.22 224.9 1613.17 298.837C1733.73 334.932 1828.93 363.454 1843.89 359.045C1861.27 353.932 1764.49 302.437 1690.18 264.149C1547.92 190.843 1494.03 154.983 1515.45 147.879C1537.56 140.542 1632.54 162.768 1764 193.529C1875.52 219.62 2014.3 252.091 2142.15 273.52C2291.47 298.546 2397.15 303.919 2465.24 289.935C2543.53 273.859 2570.68 231.002 2545.92 162.556L2548.06 162.466C2561.02 198.292 2559.88 227.379 2544.68 248.913C2530.67 268.752 2504.32 282.765 2466.35 290.561C2397.59 304.682 2291.23 299.321 2141.19 274.175C2013.21 252.725 1874.36 220.236 1762.78 194.131C1637.08 164.719 1537.8 141.488 1516.95 148.401C1496.42 155.215 1550.4 190.788 1691.99 263.747C1814.04 326.639 1859.89 355.305 1845.31 359.598C1844.05 359.969 1842.34 360.15 1840.21 360.15C1814.7 360.152 1728.12 334.229 1611.74 299.385C1365.29 225.593 992.851 114.081 852.118 144.988C811.093 153.999 792.165 174.958 795.874 207.284C799.989 243.184 832.146 294.138 891.453 358.725C1001.68 478.765 1010.27 548.971 917.703 573.353C893.305 579.778 861.671 583 822.415 583Z" fill="#932659"/>
<path d="M799.692 574C742.946 574.002 671.049 567.783 582.871 555.321C447.137 536.134 291.5 505.092 140.987 475.075C-112.921 424.434 -352.748 376.605 -435.122 399.505C-482.116 412.571 -475.396 447.574 -414.58 506.511L-416.617 506.752C-477.765 447.49 -484.269 412.225 -436.491 398.941C-352.943 375.714 -112.492 423.673 142.08 474.445C292.531 504.451 448.102 535.48 583.698 554.645C737.1 576.33 840.817 579.057 900.783 562.986C944.306 551.318 965.714 529.156 964.416 497.112C962.984 462.012 934.3 413.653 879.152 353.383C821.52 290.394 790.703 240.551 787.565 205.24C784.716 173.211 804.584 152.214 846.612 142.835C991.151 110.582 1367.58 219.288 1616.67 291.219C1738.06 326.273 1833.95 353.961 1849 349.417C1862.24 345.417 1813.69 315.982 1696.23 256.786C1554.89 185.553 1501.37 150.542 1522.69 143.27C1544.89 135.707 1640.89 157.232 1773.76 187.024C1886.53 212.307 2026.88 243.773 2156.36 264.303C2307.63 288.284 2414.91 292.94 2484.34 278.529C2563.25 262.155 2591.86 220.008 2569.37 153.261L2571.51 153.179C2583.28 188.105 2581.17 216.557 2565.25 237.747C2550.58 257.281 2523.74 271.211 2485.47 279.152C2415.37 293.698 2307.43 289.058 2155.46 264.965C2025.82 244.412 1885.4 212.93 1772.57 187.633C1645.51 159.145 1545.15 136.643 1524.22 143.784C1504.03 150.669 1559.26 186.446 1698.02 256.38C1819.43 317.568 1865.01 345.555 1850.43 349.961C1833.99 354.924 1742.25 328.439 1615.28 291.774C1366.67 219.986 990.956 111.499 847.802 143.444C806.434 152.675 786.893 173.458 789.72 205.216C792.854 240.462 823.635 290.24 881.209 353.165C988.002 469.885 994.84 538.703 902.116 563.557C876.162 570.516 842.169 574 799.692 574Z" fill="#582C7A"/>
<path d="M776.463 566C719.829 566.002 648.844 560.26 562.49 548.761C424.757 530.419 266.88 500.263 114.202 471.097C-143.139 421.939 -386.207 375.51 -469.695 399.254C-516.632 412.603 -510.7 447.024 -451.565 504.482L-453.599 504.724C-513.066 446.944 -518.785 412.261 -471.081 398.693C-386.447 374.623 -142.75 421.175 115.26 470.459C267.872 499.611 425.682 529.756 563.279 548.08C718.967 568.814 824.279 570.777 885.221 554.087C928.826 542.147 950.654 520.078 950.108 488.492C949.511 453.927 922.146 406.591 868.773 347.802C812.847 286.199 783.378 237.313 781.187 202.501C779.2 170.906 799.656 149.998 841.994 140.359C988.975 106.892 1368.98 213.05 1620.43 283.295C1742.75 317.464 1839.35 344.477 1854.53 339.744C1867.78 335.62 1819.51 306.777 1702.62 248.969C1562.13 179.483 1508.94 145.166 1530.15 137.699C1552.4 129.863 1649.5 150.789 1783.91 179.745C1898.02 204.331 2040.04 234.93 2171.29 254.651C2324.63 277.689 2433.59 281.642 2504.41 266.729C2583.9 249.994 2613.93 208.38 2593.69 143.044L2595.84 142.968C2606.42 177.143 2603.36 205.088 2586.74 226.022C2571.41 245.33 2544.09 259.235 2505.55 267.352C2434.08 282.401 2324.46 278.466 2170.41 255.32C2039.02 235.578 1896.93 204.962 1782.75 180.364C1654.23 152.673 1552.72 130.811 1531.7 138.206C1511.61 145.281 1566.49 180.344 1704.41 248.554C1825.23 308.313 1870.56 335.745 1855.98 340.285C1839.47 345.42 1747.01 319.603 1619.06 283.859C1368.1 213.752 988.843 107.805 843.189 140.968C801.506 150.459 781.371 171.156 783.342 202.485C785.527 237.228 814.962 286.049 870.829 347.588C974.256 461.503 979.406 529.237 886.58 554.657C858.972 562.216 822.445 566 776.463 566Z" fill="#DD3B21"/>
<path d="M753.254 557C696.86 557 626.945 551.749 542.576 541.239C402.753 523.82 242.548 494.671 87.6154 466.483C-173.299 419.012 -419.741 374.174 -504.314 398.676C-551.14 412.246 -545.965 445.943 -488.495 501.694L-490.529 501.935C-548.326 445.865 -553.295 411.909 -505.715 398.121C-420.028 373.288 -172.951 418.246 88.6347 465.838C243.5 494.016 403.642 523.153 543.317 540.552C701.366 560.243 808.306 561.425 870.244 544.171C913.879 532.016 936.095 510.133 936.279 479.137C936.474 445.251 910.401 399.13 858.789 342.058C804.552 282.085 776.413 234.352 775.154 200.182C774.004 169.149 795.03 148.414 837.626 138.558C987.087 103.977 1370.88 207.173 1624.83 275.457C1748.14 308.613 1845.52 334.798 1860.75 329.934C1873.99 325.702 1825.98 297.56 1709.66 241.369C1570.01 173.907 1517.12 140.421 1538.18 132.79C1560.45 124.721 1658.72 144.953 1794.72 172.958C1910.23 196.748 2054 226.355 2187.06 245.183C2342.56 267.182 2453.25 270.409 2525.47 255.048C2605.49 238.029 2636.92 197.117 2618.88 133.451L2621.02 133.381C2630.46 166.674 2626.47 193.995 2609.16 214.586C2593.19 233.593 2565.42 247.414 2526.62 255.668C2453.76 271.165 2342.42 267.955 2186.23 245.856C2053.02 227.008 1909.18 197.386 1793.6 173.584C1663.56 146.805 1560.84 125.65 1539.76 133.291C1519.8 140.52 1574.34 174.732 1711.42 240.95C1831.68 299.043 1876.78 325.813 1862.23 330.464C1860.74 330.942 1858.62 331.173 1855.91 331.173C1828.58 331.177 1740.86 307.588 1623.5 276.031C1370.03 207.877 986.995 104.883 838.843 139.16C796.874 148.872 776.171 169.401 777.309 200.174C778.562 234.275 806.674 281.936 860.845 341.842C960.929 452.504 964.454 518.873 871.611 544.736C842.276 552.91 803.03 557 753.254 557Z" fill="#8D275C"/>
<path d="M729.472 549C673.435 549 604.712 544.218 522.468 534.65C380.453 518.131 217.761 489.942 60.4297 462.681C-204.287 416.814 -454.315 373.491 -539.972 398.807C-586.647 412.605 -582.192 445.633 -526.358 499.783L-528.392 500.025C-584.552 445.562 -588.803 412.272 -541.389 398.258C-454.636 372.611 -203.974 416.046 61.4109 462.03C218.677 489.279 381.297 517.456 523.17 533.961C683.727 552.637 792.373 553.033 855.313 535.172C898.949 522.791 921.524 501.067 922.404 470.609C923.369 437.349 898.563 392.364 848.673 336.903C796.103 278.459 769.262 231.797 768.901 198.212C768.569 167.687 790.125 147.094 832.974 137.005C984.952 101.221 1372.84 201.643 1629.52 268.096C1753.88 300.291 1852.12 325.726 1867.41 320.693C1880.62 316.348 1832.83 288.858 1717.02 234.18C1578.15 168.611 1525.54 135.893 1546.44 128.094C1568.76 119.762 1668.24 139.349 1805.92 166.452C1922.93 189.486 2068.56 218.151 2203.54 236.117C2361.32 257.114 2473.81 259.617 2547.49 243.772C2628.01 226.453 2660.8 186.177 2644.94 124.062L2647.09 124C2655.38 156.471 2650.47 183.218 2632.51 203.5C2615.91 222.233 2587.7 235.99 2548.65 244.389C2474.35 260.369 2361.21 257.885 2202.76 236.796C2067.63 218.812 1921.92 190.13 1804.84 167.084C1673.17 141.167 1569.18 120.69 1548.04 128.585C1528.22 135.981 1582.47 169.398 1718.77 233.753C1838.51 290.288 1883.41 316.444 1868.91 321.217C1867.33 321.736 1865.05 321.987 1862.12 321.987C1834.14 321.989 1745.97 299.163 1628.22 268.677C1372.03 202.352 984.883 102.122 834.205 137.606C791.976 147.55 770.729 167.939 771.057 198.21C771.414 231.723 798.225 278.316 850.736 336.689C947.531 444.295 949.478 509.404 856.691 535.734C825.535 544.577 783.371 549 729.472 549Z" fill="#552D7C"/>
<path d="M704.672 541C649.141 541 581.786 536.666 501.857 528.007C357.564 512.371 192.296 485.11 32.4714 458.747C-236.198 414.428 -489.969 372.569 -576.678 398.748C-623.146 412.775 -619.385 445.173 -565.174 497.793L-567.211 498.034C-621.739 445.104 -625.307 412.449 -578.11 398.2C-490.317 371.701 -235.92 413.662 33.4145 458.088C193.172 484.441 358.368 511.691 502.513 527.311C665.663 544.99 776.046 544.59 839.981 526.087C883.571 513.475 906.462 491.892 908.016 461.937C909.711 429.266 886.135 385.357 837.958 331.432C787.036 274.439 761.48 228.788 761.985 195.748C762.45 165.694 784.514 145.217 827.57 134.885C982.068 97.8146 1374.28 195.602 1633.82 260.308C1759.31 291.594 1858.43 316.306 1873.76 311.101C1886.93 306.637 1839.35 279.762 1724.05 226.52C1585.95 162.755 1533.59 130.764 1554.28 122.789C1576.6 114.195 1677.34 133.149 1816.78 159.384C1935.35 181.69 2082.92 209.449 2219.89 226.573C2380.01 246.589 2494.38 248.368 2569.53 232.011C2650.5 214.386 2684.61 174.701 2670.89 114.056L2673.04 114C2686.82 174.933 2652.38 214.845 2570.69 232.628C2494.94 249.117 2379.94 247.362 2219.15 227.259C2082.01 210.116 1934.37 182.339 1815.74 160.023C1682.38 134.936 1577.05 115.124 1555.9 123.273C1536.27 130.839 1590.25 163.508 1725.78 226.087C1845.01 281.143 1889.73 306.721 1875.29 311.618C1873.63 312.183 1871.18 312.455 1868.01 312.455C1839.35 312.456 1750.7 290.357 1632.55 260.899C1373.5 196.316 982.028 98.7135 828.812 135.482C786.358 145.669 764.601 165.947 764.141 195.752C763.635 228.719 789.165 274.296 840.021 331.22C933.561 435.918 934.01 499.84 841.378 526.646C808.305 536.216 763.02 541 704.672 541Z" fill="#9E2D9C"/>
<path d="M680.185 533C625.324 533.002 559.501 529.116 482.051 521.349C335.364 506.643 167.365 480.381 4.89662 454.982C-267.95 412.328 -525.666 372.044 -613.426 399.019C-659.648 413.227 -656.542 444.91 -603.929 495.878L-605.965 496.119C-658.895 444.844 -661.808 412.906 -614.875 398.48C-526.052 371.176 -267.712 411.563 5.79944 454.321C168.198 479.705 336.126 505.958 482.662 520.651C648.534 537.282 760.738 536.081 825.683 516.976C869.194 504.175 892.376 482.792 894.572 453.424C896.964 421.427 874.598 378.705 828.098 326.443C778.804 271.04 754.495 226.514 755.84 194.104C757.071 164.597 779.619 144.291 822.854 133.749C979.898 95.4583 1376.78 190.369 1639.4 253.174C1766.09 283.471 1866.17 307.404 1881.54 302.038C1894.64 297.468 1847.25 271.269 1732.39 219.592C1595.02 157.778 1542.88 126.587 1563.35 118.463C1585.62 109.62 1687.73 127.902 1829.05 153.201C1949.28 174.724 2098.89 201.508 2237.96 217.743C2400.56 236.725 2516.87 237.771 2593.52 220.937C2674.92 203.063 2710.3 164.074 2698.69 105.049L2700.85 105C2712.5 164.309 2676.8 203.522 2594.69 221.55C2517.45 238.51 2400.52 237.492 2237.25 218.433C2098.03 202.18 1948.33 175.38 1828.04 153.848C1692.9 129.65 1586.15 110.541 1564.99 118.935C1545.57 126.647 1599.31 158.491 1734.12 219.152C1852.89 272.597 1897.44 297.538 1883.08 302.546C1866.43 308.365 1770.67 285.46 1638.16 253.77C1376.03 191.083 979.903 96.3516 824.114 134.341C781.458 144.741 759.216 164.851 757.996 194.114C756.651 226.451 780.931 270.901 830.162 326.233C876.727 378.569 899.124 421.367 896.728 453.443C894.514 483.026 871.085 504.585 827.098 517.526C792.014 527.847 743.369 533 680.185 533Z" fill="#E12A23"/>
<path d="M655.182 526C601.189 526 537.11 522.528 462.381 515.593C313.268 501.753 142.488 476.378 -22.6691 451.839C-299.759 410.666 -561.481 371.777 -650.238 399.687C-696.147 414.121 -693.661 445.225 -642.647 494.775L-644.682 495.017C-696.01 445.163 -698.307 413.805 -651.704 399.152C-561.901 370.919 -299.557 409.898 -21.8047 451.17C143.28 475.698 313.989 501.063 462.949 514.886C631.592 530.538 745.614 528.517 811.538 508.712C854.914 495.682 878.335 474.416 881.142 445.504C884.197 414.045 863.019 372.318 818.192 321.479C770.524 267.419 747.453 223.821 749.608 191.897C751.579 162.81 774.563 142.587 817.923 131.793C977.469 92.0737 1379.11 184.539 1644.88 245.723C1772.8 275.174 1873.82 298.433 1889.22 292.879C1902.23 288.186 1855.03 262.547 1740.65 212.194C1604.03 152.045 1552.12 121.52 1572.31 113.218C1594.52 104.091 1697.99 121.774 1841.19 146.249C1963.09 167.08 2114.78 193.009 2255.98 208.425C2421.1 226.452 2539.36 226.763 2617.54 209.373C2699.28 191.189 2735.9 152.722 2726.37 95.0412L2728.52 95C2738.09 152.96 2701.15 191.647 2618.72 209.984C2539.96 227.504 2421.1 227.221 2255.32 209.121C2113.97 193.688 1962.19 167.746 1840.22 146.903C1703.27 123.496 1595.09 105.002 1573.97 113.683C1554.8 121.565 1608.3 152.726 1742.36 211.747C1859.07 263.131 1904.85 288.308 1890.79 293.38C1888.95 294.046 1886.13 294.364 1882.4 294.364C1852.33 294.366 1762.69 273.729 1643.67 246.33C1378.4 185.261 977.527 92.9714 819.198 132.382C776.404 143.036 753.717 163.066 751.763 191.912C749.615 223.762 772.657 267.282 820.256 321.27C865.152 372.184 886.359 413.991 883.297 445.527C880.468 474.65 856.807 496.092 812.968 509.26C775.8 520.427 723.582 526 655.182 526Z" fill="#D01F36"/>
<path d="M628.79 519C575.84 519 513.696 515.934 441.86 509.815C290.155 496.891 116.387 472.474 -51.658 448.862C-333.299 409.286 -599.328 371.905 -689.087 400.684C-734.65 415.288 -732.753 445.729 -683.289 493.742L-685.324 493.984C-735.097 445.67 -736.813 414.976 -690.569 400.153C-599.792 371.048 -333.139 408.518 -50.8339 448.186C117.141 471.79 290.833 496.196 442.39 509.106C613.984 523.726 729.943 520.884 796.873 500.417C840.094 487.204 863.725 466.118 867.118 437.744C870.796 406.907 850.762 366.281 807.572 316.986C761.495 264.406 739.616 221.848 742.553 190.495C745.231 161.905 768.633 141.823 812.106 130.81C974.234 89.7285 1381.11 179.513 1650.34 238.924C1779.6 267.448 1881.69 289.98 1897.09 284.252C1910 279.448 1862.93 254.432 1748.96 205.526C1613 147.185 1561.25 117.4 1581.16 108.947C1603.29 99.5559 1708.23 116.597 1853.48 140.183C1977.18 160.27 2131.13 185.269 2274.59 199.82C2442.41 216.843 2562.75 216.411 2642.5 198.5C2724.58 180.067 2762.4 142.228 2754.91 86.0335L2757.07 86C2764.59 142.471 2726.45 180.526 2643.69 199.11C2563.38 217.147 2442.45 217.609 2273.97 200.522C2130.34 185.954 1976.31 160.94 1852.55 140.842C1713.62 118.284 1603.9 100.467 1582.85 109.403C1563.93 117.431 1617.26 147.831 1750.65 205.071C1866.97 254.984 1912.62 279.557 1898.68 284.744C1896.75 285.464 1893.72 285.806 1889.67 285.806C1858.85 285.811 1768.67 265.908 1649.16 239.539C1380.43 180.237 974.308 90.622 813.395 131.395C770.479 142.269 747.371 162.163 744.708 190.519C741.778 221.794 763.626 264.273 809.636 316.779C852.895 366.148 872.962 406.857 869.267 437.773C865.858 466.352 841.985 487.61 798.317 500.961C758.946 512.998 702.875 519 628.79 519Z" fill="#DD144D"/>
<path d="M602.548 512C550.865 512 490.875 509.317 422.157 503.963C267.731 491.933 90.8264 468.432 -80.2527 445.703C-366.683 407.651 -637.224 371.711 -727.981 401.42C-773.155 416.209 -771.812 446.043 -723.875 492.628L-725.912 492.871C-774.154 445.988 -775.322 415.9 -729.479 400.893C-637.721 370.854 -366.558 406.881 -79.4688 445.022C91.5384 467.741 268.369 491.232 422.64 503.251C597.328 516.856 715.285 513.179 783.244 491.999C826.273 478.591 850.086 457.649 854.032 429.76C858.308 399.487 839.387 359.87 797.79 312.01C753.283 260.797 732.578 219.191 736.264 188.349C739.633 160.196 763.419 140.219 806.965 128.971C971.717 86.4114 1384.19 173.704 1657.13 231.467C1787.83 259.127 1891.04 280.977 1906.41 275.061C1919.21 270.14 1872.25 245.693 1758.64 198.126C1623.3 141.46 1571.68 112.348 1591.28 103.737C1613.29 94.0578 1719.79 110.495 1867.18 133.237C1992.77 152.616 2149.08 176.736 2294.93 190.448C2465.56 206.491 2588.06 205.312 2669.45 186.842C2751.84 168.142 2790.83 130.857 2785.33 76.0236L2787.49 76C2793.01 131.102 2753.69 168.601 2670.64 187.451C2588.72 206.046 2465.63 207.258 2294.36 191.155C2148.34 177.427 1991.95 153.294 1866.29 133.905C1725.31 112.151 1613.95 94.9655 1592.99 104.184C1574.36 112.367 1627.54 142.072 1760.31 197.665C1876.28 246.217 1921.83 270.236 1908.03 275.545C1891.45 281.922 1792.69 261.02 1655.99 232.09C1383.55 174.431 971.838 87.3 808.27 129.553C765.258 140.665 741.76 160.456 738.42 188.379C734.746 219.14 755.415 260.666 799.859 311.801C841.527 359.742 860.476 399.44 856.181 429.795C852.215 457.885 828.164 478.995 784.703 492.539C743.02 505.527 682.805 511.998 602.548 512Z" fill="#D32F23"/>
<path d="M575.628 505C525.482 505 467.93 502.688 402.603 498.076C245.426 486.979 65.3232 464.458 -108.849 442.677C-400.134 406.256 -675.259 371.848 -766.945 402.428C-811.662 417.341 -810.84 446.49 -764.428 491.538L-766.462 491.78C-813.18 446.437 -813.829 417.039 -768.456 401.906C-675.791 371.005 -400.044 405.487 -108.104 441.991C65.9946 463.762 246.021 486.275 403.045 497.36C580.871 509.914 700.835 505.396 769.786 483.549C812.563 469.997 836.517 449.266 840.983 421.937C845.822 392.31 827.991 353.804 787.983 307.486C745.04 257.765 725.496 217.218 729.893 186.967C733.912 159.33 758.036 139.511 801.608 128.063C968.921 84.0989 1387.09 168.679 1663.81 224.649C1795.94 251.372 1900.31 272.489 1915.64 266.402C1928.29 261.379 1881.44 237.559 1768.21 191.442C1633.53 136.58 1582.05 108.217 1601.3 99.4756C1623.17 89.5425 1731.23 105.325 1880.79 127.166C2008.31 145.788 2167 168.962 2315.26 181.796C2488.76 196.816 2613.44 194.885 2696.43 175.9C2779.06 156.996 2819.16 120.363 2815.63 67.016L2817.79 67C2821.33 120.611 2780.91 157.454 2697.64 176.504C2614.1 195.615 2488.85 197.579 2314.73 182.506C2166.31 169.656 2007.53 146.468 1879.94 127.837C1736.88 106.944 1623.86 90.4436 1603.02 99.9128C1584.73 108.221 1637.74 137.157 1769.87 190.974C1885.46 238.053 1930.92 261.461 1917.28 266.877C1900.76 273.427 1800.91 253.23 1662.7 225.277C1386.49 169.41 969.069 84.9824 802.924 128.642C759.882 139.953 736.031 159.589 732.044 187.004C727.656 217.171 747.178 257.637 790.053 307.281C830.129 353.679 847.989 392.267 843.132 421.977C838.637 449.502 814.454 470.397 771.257 484.084C727.185 498.049 662.553 504.998 575.628 505Z" fill="#DB2386"/>
<path d="M547.104 498C498.76 498 443.89 496.038 382.198 492.124C222.099 481.968 38.5938 460.437 -138.871 439.614C-435.321 404.831 -715.333 371.977 -807.949 403.412C-852.181 418.427 -851.842 446.882 -806.914 490.406L-808.948 490.647C-854.177 446.831 -854.348 418.128 -809.472 402.896C-715.901 371.135 -435.274 404.064 -138.163 438.925C39.2248 459.739 222.654 481.262 382.593 491.405C563.754 502.898 685.834 497.538 755.8 475.025C798.303 461.347 822.371 440.842 827.331 414.082C832.701 385.111 815.925 347.714 777.469 302.931C736.054 254.706 717.627 215.218 722.703 185.57C727.349 158.454 751.794 138.806 795.354 127.171C965.298 81.7877 1389.65 163.647 1670.45 217.813C1804.16 243.606 1909.79 263.977 1925.04 257.726C1937.53 252.607 1890.76 229.416 1777.84 184.741C1643.72 131.676 1592.33 104.06 1611.21 95.1999C1632.89 85.0174 1742.64 100.14 1894.54 121.075C2024.11 138.932 2185.36 161.157 2336.18 173.11C2512.7 187.1 2639.68 184.42 2724.37 164.918C2807.22 145.838 2848.41 109.868 2846.8 58.0076L2848.95 58C2850.58 110.119 2809.06 146.295 2725.58 165.521C2640.37 185.144 2512.84 187.861 2335.69 173.82C2184.71 161.854 2023.37 139.619 1893.73 121.752C1748.43 101.726 1633.66 85.9062 1612.95 95.6287C1595.01 104.05 1647.93 132.216 1779.48 184.266C1894.76 229.876 1940.16 252.675 1926.7 258.192C1910.3 264.922 1809.24 245.425 1669.39 218.447C1389.09 164.376 965.482 82.6659 796.688 127.745C753.633 139.244 729.465 158.712 724.859 185.613C719.794 215.178 738.191 254.581 779.54 302.729C818.063 347.592 834.868 385.072 829.481 414.127C824.486 441.078 800.196 461.746 757.285 475.555C710.695 490.547 641.302 498 547.104 498Z" fill="#732A6B"/>
<path d="M518.153 492C471.926 492.002 420.061 490.357 362.296 487.082C199.199 477.83 12.1844 457.208 -168.671 437.263C-470.452 403.981 -755.494 372.544 -848.998 404.976C-892.7 420.132 -892.815 448.013 -849.36 490.207L-851.396 490.449C-895.15 447.964 -894.868 419.84 -850.539 404.465C-756.1 371.709 -470.436 403.212 -168.006 436.567C12.7772 456.502 199.714 477.119 362.653 486.361C547.236 496.829 671.463 490.597 742.421 467.312C784.608 453.471 808.746 433.118 814.167 406.817C820.03 378.383 804.279 341.935 767.354 298.482C727.451 251.534 710.12 212.939 715.844 183.769C721.087 157.061 745.807 137.507 789.314 125.648C961.85 78.6175 1392.64 158.099 1677.71 210.694C1813.05 235.664 1919.94 255.385 1935.13 248.938C1947.43 243.707 1900.72 221.042 1788.11 177.609C1654.56 126.096 1603.24 99.1091 1621.71 90.1027C1643.21 79.6279 1754.68 94.1586 1908.95 114.273C2040.63 131.439 2204.5 152.804 2357.95 163.923C2537.58 176.936 2666.91 173.493 2753.32 153.39C2836.34 134.071 2878.58 98.6116 2878.84 48H2881C2880.74 98.8691 2838.18 134.529 2754.53 153.992C2667.61 174.215 2537.74 177.696 2357.5 164.637C2203.89 153.507 2039.93 132.131 1908.18 114.956C1760.59 95.7146 1644.02 80.5156 1623.48 90.5225C1605.92 99.084 1658.75 126.603 1789.73 177.125C1904.71 221.471 1950.07 243.759 1936.81 249.394C1920.49 256.323 1818.23 237.451 1676.68 211.335C1392.12 158.834 962.079 79.4892 790.666 126.217C747.646 137.942 723.198 157.324 717.995 183.817C712.291 212.904 729.589 251.413 769.425 298.281C806.424 341.814 822.197 378.348 816.318 406.868C810.861 433.353 786.503 453.866 743.921 467.839C694.717 483.985 620.224 492 518.153 492Z" fill="#8740A5"/>
<path d="M-893.787 490C-936.091 448.963 -935.402 421.505 -891.667 406.056C-796.402 372.407 -505.568 402.374 -197.648 434.102C-13.3647 453.092 177.196 472.728 343.219 481.025C531.318 490.429 657.729 483.336 729.679 459.344C771.498 445.399 795.675 425.271 801.526 399.517C807.848 371.715 793.093 336.322 757.67 294.32C719.27 248.791 703.008 211.205 709.342 182.608C715.155 156.396 740.11 137.002 783.517 124.966C958.646 76.4023 1396.14 153.259 1685.63 204.116C1822.66 228.187 1930.88 247.201 1945.95 240.575C1958.06 235.25 1911.38 213.181 1799.08 171.116C1666.07 121.301 1614.81 95.0224 1632.85 85.9091C1654.1 75.1768 1767.34 89.0679 1924.08 108.292C2057.92 124.711 2224.5 145.144 2380.65 155.385C2563.48 167.376 2695.21 163.171 2783.35 142.531C2866.5 123.053 2909.73 88.22 2911.84 39L2914 39.0099C2911.88 88.481 2868.33 123.512 2784.58 143.13C2695.93 163.89 2563.68 168.134 2380.23 156.102C2223.93 145.848 2057.26 125.406 1923.34 108.978C1773.39 90.5856 1654.95 76.059 1634.65 86.3163C1617.48 94.9836 1670.24 121.772 1800.68 170.625C1915.35 213.578 1960.69 235.289 1947.66 241.022C1945.25 242.076 1940.93 242.575 1934.83 242.575C1899.88 242.577 1806.68 226.203 1684.64 204.765C1395.65 153.996 958.911 77.2715 784.88 125.531C741.945 137.437 717.258 156.659 711.493 182.663C705.175 211.174 721.408 248.674 759.74 294.118C795.237 336.203 810.015 371.684 803.675 399.573C797.779 425.509 773.391 445.793 731.19 459.866C658.728 484.026 531.72 491.187 342.904 481.748C176.72 473.443 -13.9147 453.798 -198.274 434.801C-505.539 403.142 -795.772 373.235 -890.109 406.561C-933.228 421.793 -933.763 449.007 -891.752 489.759L-893.787 490Z" fill="#F48377"/>
<path d="M-938.127 490C-979.017 450.269 -977.942 423.399 -934.826 407.854C-890.913 392.021 -805.007 388.073 -664.473 395.44C-539.758 401.977 -388.653 416.517 -228.678 431.907C-40.6851 449.996 153.708 468.699 322.984 476.069C514.791 484.423 643.496 476.44 716.453 451.67C757.889 437.601 782.074 417.651 788.335 392.374C795.083 365.123 781.286 330.674 747.328 289.985C710.388 245.73 695.165 209.039 702.081 180.932C708.427 155.142 733.596 135.859 776.878 123.618C954.663 73.347 1399.35 147.801 1693.61 197.066C1832.44 220.31 1942.08 238.671 1957.03 231.85C1968.92 226.423 1922.26 204.878 1810.18 164.046C1677.65 115.76 1626.4 90.1082 1644 80.8718C1664.97 69.855 1780.11 83.1439 1939.44 101.533C2075.6 117.247 2245.03 136.804 2404.03 146.194C2590.24 157.193 2724.49 152.214 2814.45 130.969C2897.73 111.3 2941.94 76.9931 2945.84 29L2948 29.0198C2944.07 77.2592 2899.56 111.761 2815.68 131.571C2725.24 152.93 2590.47 157.948 2403.67 146.916C2244.5 137.514 2074.97 117.948 1938.75 102.225C1786.3 84.6314 1665.88 70.7318 1645.8 81.2698C1629.07 90.0556 1681.8 116.2 1811.76 163.546C1926.21 205.247 1971.55 226.446 1958.76 232.287C1956.27 233.424 1951.61 233.959 1944.99 233.959C1909.11 233.961 1815.25 218.247 1692.66 197.724C1398.9 148.54 954.962 74.2155 778.257 124.18C735.435 136.29 710.525 155.405 704.23 180.993C697.339 209.012 712.532 245.614 749.405 289.784C783.431 330.559 797.257 365.096 790.484 392.436C784.179 417.889 759.78 437.993 717.976 452.188C644.517 477.129 515.222 485.179 322.71 476.796C153.273 469.419 -41.1993 450.708 -229.265 432.612C-542.352 402.489 -838.069 374.036 -933.256 408.356C-975.763 423.684 -976.695 450.31 -936.092 489.758L-938.127 490Z" fill="#782968"/>
<path d="M-982.422 490C-1021.92 451.658 -1020.49 425.445 -978.041 409.865C-933.775 393.618 -846.543 389.113 -703.507 395.687C-576.557 401.522 -422.549 415.278 -259.5 429.843C-67.6845 446.975 130.659 464.69 303.277 471.105C498.897 478.379 629.929 469.517 703.872 444.024C744.884 429.883 769.04 410.171 775.68 385.437C782.819 358.809 769.954 325.381 737.433 286.085C701.94 243.202 687.728 207.495 695.185 179.95C702.037 154.649 727.372 135.531 770.484 123.133C950.892 71.2509 1403.07 143.111 1702.29 190.662C1842.98 213.023 1954.1 230.678 1968.87 223.689C1980.51 218.177 1933.85 197.208 1822 157.693C1689.94 111.037 1638.68 86.07 1655.81 76.7427C1676.49 65.4766 1793.55 78.123 1955.57 95.6282C2094.08 110.594 2266.46 129.218 2428.38 137.731C2618.05 147.7 2754.88 141.955 2846.67 120.162C2930.04 100.365 2975.18 66.668 2980.84 20L2983 20.0312C2977.31 66.9369 2931.86 100.827 2847.9 120.76C2784.77 135.749 2700.51 143.193 2592.65 143.195C2542.89 143.195 2488.12 141.611 2428.05 138.452C2265.97 129.934 2093.5 111.298 1954.91 96.326C1799.89 79.5743 1677.43 66.3465 1657.64 77.1304C1641.34 86.0022 1694.07 111.44 1823.55 157.185C1937.8 197.545 1983.15 218.187 1970.63 224.116C1968.04 225.339 1963.04 225.91 1955.85 225.91C1918.99 225.912 1824.48 210.89 1701.37 191.326C1402.65 143.853 951.233 72.1087 771.874 123.691C729.211 135.96 704.13 154.911 697.334 180.019C689.901 207.471 704.089 243.091 739.508 285.886C772.098 325.27 784.993 358.785 777.825 385.503C771.144 410.411 746.781 430.272 705.405 444.537C630.976 470.2 499.368 479.129 303.043 471.832C130.264 465.41 -68.1583 447.689 -260.048 430.548C-579.11 402.051 -880.484 375.136 -976.456 410.362C-1018.31 425.725 -1019.6 451.694 -980.388 489.758L-982.422 490Z" fill="#ED2224"/>
<path d="M-1027.68 490C-1065.8 453.031 -1064.04 427.484 -1022.31 411.894C-977.715 395.239 -889.146 390.173 -743.555 395.956C-614.322 401.088 -457.334 414.053 -291.127 427.778C-95.3774 443.943 107.037 460.661 283.087 466.112C482.631 472.293 616.036 462.554 690.941 436.341C775.918 406.604 787.719 356.176 727.016 282.174C692.953 240.661 679.721 205.938 687.683 178.967C695.005 154.158 720.464 135.222 763.349 122.684C844.136 99.0594 984.776 97.0295 1193.32 116.471C1369.61 132.908 1558.69 161.377 1710.62 184.253C1853.24 205.728 1965.89 222.683 1980.47 215.523C1991.85 209.934 1945.16 189.535 1833.53 151.33C1701.92 106.287 1650.65 82.0087 1667.28 72.6046C1687.62 61.0952 1806.67 73.1014 1971.43 89.7161C2112.36 103.929 2287.76 121.615 2452.67 129.244C2645.9 138.182 2785.36 131.671 2879.02 109.334C2962.44 89.4392 3008.48 56.3543 3015.85 11L3018 11.0411C3010.59 56.6305 2964.25 89.901 2880.26 109.932C2786.13 132.378 2646.18 138.933 2452.38 129.969C2287.3 122.332 2111.81 104.636 1970.81 90.4154C1813.15 74.5174 1688.61 61.958 1669.12 72.9805C1653.31 81.925 1706.04 106.657 1835.06 150.816C1949.1 189.843 1994.49 209.927 1982.24 215.938C1966.63 223.6 1858.88 207.376 1709.75 184.919C1557.89 162.054 1368.89 133.597 1192.75 117.175C984.953 97.8032 844.958 99.786 764.757 123.235C722.303 135.649 697.093 154.425 689.827 179.039C681.895 205.919 695.104 240.554 729.091 281.977C760.269 319.988 772.258 352.489 764.723 378.579C757.693 402.933 733.384 422.538 692.495 436.849C631.652 458.136 532.633 468.635 391.471 468.637C357.695 468.637 321.544 468.037 282.891 466.839C106.68 461.381 -95.8107 444.659 -291.637 428.487C-616.839 401.631 -924.008 376.263 -1020.71 412.385C-1061.87 427.757 -1063.49 453.066 -1025.64 489.759L-1027.68 490Z" fill="#38308C"/>
<path d="M-1073.88 490C-1110.67 454.316 -1108.62 429.384 -1067.61 413.781C-1022.69 396.691 -932.711 391.06 -784.441 396.052C-652.801 400.485 -492.668 412.676 -323.134 425.584C-123.242 440.803 83.4576 456.539 263.108 461.031C466.751 466.123 602.638 455.481 678.527 428.503C762.445 398.671 775.001 349.391 716.919 277.841C684.254 237.605 671.968 203.793 680.407 177.346C688.175 152.991 713.735 134.208 756.369 121.516C838.317 97.1286 981.35 94.1233 1193.65 112.337C1373.09 127.732 1565.47 155.163 1720.04 177.206C1864.71 197.832 1978.96 214.127 1993.36 206.782C2004.47 201.112 1957.73 181.245 1846.25 144.259C1715.02 100.724 1663.68 77.0785 1679.79 67.5939C1699.78 55.8318 1820.91 67.2102 1988.57 82.9633C2132.06 96.4419 2310.63 113.22 2478.69 119.975C2675.63 127.89 2817.85 120.6 2913.43 97.6858C2996.91 77.6768 3043.81 45.1475 3052.85 1L3055 1.05024C3045.91 45.4276 2998.7 78.1403 2914.68 98.2818C2818.64 121.305 2675.94 128.64 2478.43 120.701C2310.21 113.94 2131.55 97.1537 1988 83.6667C1827.55 68.5918 1700.82 56.6851 1681.66 67.9585C1666.34 76.981 1719.11 101.061 1847.75 143.737C1961.64 181.522 2007.1 201.091 1995.15 207.186C1979.77 215.035 1870.48 199.447 1719.21 177.878C1564.69 155.845 1372.4 128.428 1193.12 113.045C981.563 94.8967 839.168 97.8471 757.795 122.066C715.574 134.632 690.261 153.256 682.552 177.426C674.142 203.779 686.403 237.5 718.994 277.648C748.807 314.371 759.932 345.924 752.061 371.432C744.702 395.272 720.49 414.644 680.086 429.006C603.725 456.155 467.274 466.865 262.951 461.759C83.1409 457.264 -123.637 441.522 -323.606 426.297C-655.285 401.047 -968.567 377.194 -1066 414.266C-1106.44 429.653 -1108.35 454.347 -1071.84 489.758L-1073.88 490Z" fill="#ED0A81"/>
<path d="M-1120.03 491C-1155.51 456.589 -1153.2 432.283 -1112.96 416.694C-1067.75 399.181 -976.34 392.978 -825.343 397.179C-691.25 400.909 -527.895 412.316 -354.954 424.392C-150.805 438.646 60.2943 453.385 243.631 456.905C451.485 460.896 589.873 449.347 666.736 421.611C749.512 391.737 762.768 343.615 707.269 274.498C675.986 235.537 664.621 202.646 673.495 176.735C681.676 152.845 707.292 134.231 749.633 121.41C832.714 96.2503 978.187 92.2691 1194.36 109.241C1377.04 123.581 1572.82 149.962 1730.13 171.16C1876.89 190.934 1992.79 206.549 2006.96 199.037C2017.78 193.296 1970.96 173.963 1859.62 138.197C1728.77 96.159 1677.36 73.1516 1692.94 63.6012C1712.52 51.5928 1835.81 62.3421 2006.43 77.2188C2152.52 89.958 2334.34 105.813 2505.61 111.686C2706.37 118.57 2851.39 110.5 2948.95 87.0151C3032.44 66.9179 3080.18 34.9508 3090.85 -8L3093 -7.9391C3082.27 35.2348 3034.23 67.3837 2950.2 87.6111C2852.2 111.203 2706.7 119.316 2505.39 112.413C2333.96 106.534 2152.05 90.6728 2005.89 77.9283C1842.59 63.6887 1713.61 52.4446 1694.83 63.9536C1680.01 73.0389 1732.85 96.4604 1861.11 137.665C1974.86 174.208 2020.4 193.259 2008.78 199.43C1993.66 207.454 1882.78 192.512 1729.34 171.838C1572.09 150.652 1376.39 124.281 1193.87 109.952C978.434 93.0364 833.588 96.9651 751.063 121.954C709.133 134.652 683.758 153.113 675.636 176.821C666.792 202.636 678.135 235.436 709.351 274.306C737.814 309.757 748.104 340.366 739.93 365.281C732.272 388.601 708.179 407.72 668.306 422.112C590.985 450.016 452.042 461.634 243.51 457.634C60.0136 454.112 -151.164 439.368 -355.387 425.107C-693.693 401.484 -1013.24 379.173 -1111.34 417.175C-1151.02 432.549 -1153.2 456.618 -1118 490.758L-1120.03 491Z" fill="#97329E"/>
<path d="M-1167.15 492C-1201.34 458.783 -1198.79 435.064 -1159.36 419.486C-1113.87 401.521 -1021.05 394.739 -867.242 398.151C-730.65 401.176 -563.994 411.807 -387.552 423.062C-179.035 436.364 36.5813 450.117 223.693 452.66C435.836 455.529 576.793 443.066 654.586 414.526C736.152 384.6 750.056 337.564 697.085 270.729C667.157 232.964 656.686 200.93 665.96 175.517C674.526 152.054 700.159 133.587 742.153 120.631C826.356 94.6491 974.296 89.6741 1194.45 105.418C1380.46 118.722 1579.76 144.088 1739.9 164.469C1888.81 183.424 2006.42 198.393 2020.33 190.699C2030.84 184.88 1983.94 166.043 1872.74 131.419C1742.24 90.7865 1690.75 68.3775 1705.78 58.7547C1724.93 46.4953 1850.39 56.6251 2024.03 70.6473C2172.79 82.6611 2357.93 97.6104 2532.49 102.607C2737.14 108.467 2885.03 99.6012 2984.59 75.5117C3068.06 55.3115 3116.6 23.8499 3128.86 -18L3131 -17.9283C3118.68 24.1427 3069.84 55.7804 2985.84 76.1064C2905.65 95.5099 2794.34 105.08 2647.58 105.082C2611.33 105.082 2572.95 104.498 2532.31 103.335C2357.59 98.3363 2172.36 83.3771 2023.53 71.3602C1857.32 57.9366 1726.05 47.3401 1707.69 59.0985C1693.39 68.2486 1746.3 91.058 1874.2 130.88C1987.83 166.26 2033.46 184.827 2022.16 191.081C2007.32 199.289 1894.84 184.971 1739.14 165.156C1579.08 144.781 1379.86 119.426 1194.01 106.135C974.588 90.4411 827.259 95.3597 743.601 121.172C702 134.007 676.6 152.323 668.1 175.607C658.857 200.926 669.312 232.864 699.171 270.538C726.318 304.794 735.795 334.518 727.346 358.878C719.427 381.711 695.476 400.602 656.167 415.024C585.23 441.048 462.286 453.794 281.372 453.796C262.725 453.796 243.493 453.659 223.605 453.39C36.3366 450.846 -179.356 437.088 -387.952 423.782C-733.05 401.767 -1059.02 380.974 -1157.72 419.963C-1196.61 435.325 -1199.03 458.81 -1165.12 491.758L-1167.15 492Z" fill="#B73E20"/>
<path d="M-1216.23 493C-1249.17 461.027 -1246.4 437.947 -1207.76 422.441C-1162.01 404.073 -1067.67 396.733 -910.9 399.334C-771.652 401.644 -601.496 411.468 -421.348 421.867C-208.208 434.171 12.1891 446.895 203.284 448.443C419.984 450.191 563.607 436.822 642.364 407.546C722.706 377.683 737.206 331.837 686.68 267.394C658.072 230.896 648.452 199.789 658.099 174.937C667.022 151.957 692.647 133.69 734.28 120.645C819.633 93.8944 970.2 87.9247 1194.6 102.398C1384.16 114.622 1587.23 138.909 1750.4 158.425C1901.63 176.514 2021.07 190.799 2034.71 182.946C2044.9 177.073 1997.88 158.771 1886.72 125.35C1756.48 86.1946 1704.85 64.426 1719.32 54.7697C1738.04 42.294 1865.8 51.778 2042.64 64.9052C2194.23 76.1582 2382.89 90.1652 2560.91 94.2669C2769.68 99.0764 2920.58 89.4384 3022.23 64.8038C3105.73 44.568 3155.06 13.6811 3168.86 -27L3171 -26.9162C3157.13 13.9797 3107.49 45.0381 3023.48 65.3988C2938.33 86.0346 2818.85 96.1936 2660.08 96.1959C2628.53 96.1959 2595.46 95.7959 2560.76 94.9968C2382.58 90.8913 2193.84 76.8804 2042.18 65.6213C1872.89 53.0556 1739.19 43.1305 1721.25 55.1011C1707.49 64.2835 1760.52 86.433 1888.15 124.805C2001.75 158.958 2047.52 177.004 2036.57 183.317C2033.57 185.043 2026.33 185.833 2015.35 185.833C1973.07 185.835 1875.21 174.13 1749.68 159.116C1586.59 139.607 1383.59 115.33 1194.19 103.116C970.528 88.6911 820.563 94.6006 735.742 121.183C694.493 134.109 669.092 152.226 660.239 175.03C650.624 199.789 660.228 230.803 688.766 267.207C714.646 300.214 723.351 328.994 714.646 352.747C706.482 375.036 682.696 393.64 643.956 408.04C564.757 437.479 420.599 450.934 203.232 449.173C11.9802 447.625 -208.495 434.897 -421.71 422.588C-774.017 402.251 -1106.79 383.041 -1206.12 422.912C-1244.22 438.204 -1246.86 461.053 -1214.19 492.758L-1216.23 493Z" fill="#C7203B"/>
<path d="M-1265.26 494C-1296.97 463.196 -1294.02 440.718 -1256.23 425.278C-1210.24 406.483 -1114.42 398.572 -954.662 400.363C-812.749 401.96 -639.055 410.982 -455.164 420.533C-237.335 431.848 -12.0918 443.546 183.033 444.095C404.304 444.725 550.636 430.409 630.317 400.356C709.358 370.546 724.398 325.818 676.286 263.615C648.972 228.309 640.182 198.068 650.162 173.734C659.401 151.206 684.984 133.121 726.192 119.982C812.657 92.4142 965.87 85.4368 1194.59 98.6498C1387.76 109.812 1594.68 133.057 1760.93 151.735C1914.47 168.984 2035.74 182.607 2049.06 174.591C2058.91 168.664 2011.77 150.864 1900.68 118.581C1770.71 80.8075 1718.95 59.6375 1732.85 49.9391C1751.05 37.2377 1881.16 46.0868 2061.27 58.3376C2215.7 68.8418 2407.9 81.9161 2589.42 85.1227C2802.32 88.8835 2956.26 78.4594 3060.01 53.2471C3143.47 32.963 3193.56 2.60006 3208.86 -37L3211 -36.9047C3195.61 2.90273 3145.23 33.4357 3061.26 53.8403C2957.1 79.1547 2802.72 89.6276 2589.3 85.8546C2407.63 82.6441 2215.34 69.5638 2060.84 59.0558C1888.44 47.3295 1752.27 38.0649 1734.79 50.2593C1721.57 59.4789 1774.73 81.0126 1902.08 118.025C2015.62 151.023 2061.54 168.578 2050.94 174.953C2047.88 176.795 2040.06 177.633 2028.1 177.634C1984.6 177.634 1886.13 166.572 1760.25 152.429C1594.07 133.759 1387.24 110.525 1194.23 99.3725C966.228 86.1999 813.605 93.1148 727.663 120.517C642.579 147.644 625.994 195.729 678.372 263.43C702.996 295.268 710.957 323.164 702.028 346.346C693.641 368.129 670.054 386.466 631.921 400.847C551.799 431.063 404.959 445.466 183.015 444.827C-12.2625 444.276 -237.587 432.573 -455.489 421.256C-815.078 402.581 -1154.72 384.938 -1254.57 425.745C-1291.83 440.972 -1294.66 463.218 -1263.22 493.758L-1265.26 494Z" fill="#D21F35"/>
<path d="M-1314.26 495C-1344.76 465.406 -1341.65 443.575 -1304.74 428.257C-1258.54 409.085 -1161.18 400.61 -998.418 401.598C-853.788 402.473 -676.473 410.665 -488.748 419.339C-266.117 429.624 -35.9401 440.307 163.325 439.8C389.31 439.276 538.331 424.072 618.909 393.316C696.59 363.668 712.101 320.149 666.34 260.278C640.305 226.218 632.317 196.901 642.592 173.143C652.127 151.116 677.624 133.262 718.371 120.079C764.884 105.027 832.771 95.5976 920.146 92.0488C995.453 88.991 1087.9 90.215 1194.95 95.6867C1391.82 105.748 1602.68 127.891 1772.11 145.683C1928.04 162.056 2051.21 174.988 2064.19 166.832C2073.71 160.866 2026.42 143.602 1915.39 112.5C1785.68 76.1683 1733.76 55.6391 1747.07 45.9366C1764.76 33.0515 1897.24 41.2437 2080.61 52.5836C2237.95 62.3134 2433.76 74.4228 2618.84 76.7278C2835.99 79.4286 2993 68.2395 3098.88 42.5127C3182.3 22.2423 3233.1 -7.53804 3249.87 -46L3252 -45.8927C3235.14 -7.2267 3184.05 22.7157 3100.14 43.1049C2993.85 68.9314 2836.38 80.1731 2618.76 77.4586C2433.52 75.1513 2237.63 63.0366 2080.22 53.3021C1897.8 42.0217 1766.01 33.8721 1749.03 46.2442C1736.38 55.4678 1789.68 76.3403 1916.77 111.937C2030.26 143.729 2076.32 160.766 2066.1 167.179C2062.97 169.142 2054.52 170.03 2041.45 170.03C1996.69 170.032 1897.64 159.628 1771.47 146.381C1602.11 128.595 1391.33 106.463 1194.63 96.4083C962.182 84.5287 806.891 92.4446 719.86 120.607C635.776 147.815 618.472 194.744 668.428 260.094C691.83 290.72 699.077 317.685 689.956 340.245C681.375 361.472 658.013 379.492 620.517 393.803C539.516 424.722 389.972 440.007 163.34 440.531C-36.0882 441.008 -266.337 430.353 -489.037 420.064C-856.076 403.104 -1202.75 387.088 -1303.07 428.718C-1339.46 443.823 -1342.46 465.424 -1312.23 494.758L-1314.26 495Z" fill="#35308E"/>
<path d="M-1365.21 497C-1394.55 468.492 -1391.29 447.232 -1355.26 432.006C-1308.87 412.403 -1210 403.31 -1043.96 403.519C-896.471 403.671 -715.344 411.052 -523.58 418.866C-295.894 428.147 -60.4363 437.741 143.1 436.257C374.022 434.576 525.884 418.419 607.384 386.865C683.697 357.317 699.649 314.861 656.153 257.07C608.339 193.547 626.502 147.381 710.135 119.847C757.242 104.342 826.244 94.3916 915.234 90.2747C991.909 86.7281 1086.16 87.4076 1195.35 92.2969C1396.14 101.286 1611.21 122.392 1784.02 139.352C1942.48 154.902 2067.64 167.185 2080.3 158.871C2089.45 152.856 2041.99 136.065 1930.93 106.026C1801.37 70.9842 1749.26 51.0188 1761.99 41.2897C1779.13 28.191 1914.12 35.7492 2100.97 46.2088C2319.93 58.4695 2592.44 73.727 2827.25 65.7197C3105.41 56.2384 3257.72 16.4221 3292.87 -56L3295 -55.881C3276.23 -17.2185 3222.19 12.7772 3134.36 33.2763C3058.75 50.9228 2955.5 62.0832 2827.46 66.4494C2592.37 74.4628 2319.71 59.1978 2100.62 46.9309C1914.72 36.5224 1780.42 29.0031 1763.96 41.5879C1751.87 50.8328 1805.35 71.1268 1932.27 105.452C2045.81 136.162 2092.06 152.741 2082.21 159.207C2068.75 168.06 1949.07 156.311 1783.42 140.055C1610.68 123.103 1395.7 102.005 1195.07 93.0236C957.92 82.4061 799.79 91.3544 711.635 120.374C628.601 147.709 610.631 193.639 658.245 256.888C680.473 286.43 687.039 312.57 677.738 334.583C668.983 355.326 645.851 373.08 609.006 387.348C527.086 419.066 374.705 435.303 143.147 436.989C-60.562 438.471 -296.078 428.875 -523.836 419.592C-898.718 404.317 -1252.81 389.887 -1353.58 432.464C-1389.11 447.476 -1392.25 468.507 -1363.18 496.758L-1365.21 497Z" fill="#A02D1F"/>
<path d="M-1417.13 498C-1445.33 470.661 -1441.95 450.053 -1406.82 435C-1360.24 415.052 -1259.73 405.458 -1090.5 404.807C-940.085 404.235 -755.081 410.761 -559.199 417.678C-326.344 425.899 -85.5589 434.39 122.399 431.893C358.348 429.05 513.088 412.008 595.47 379.789C670.367 350.5 686.708 309.267 645.427 253.734C599.925 192.522 618.681 147.535 701.184 120.02C748.864 104.117 818.996 93.6855 909.627 89.015C987.709 84.9889 1083.78 85.1197 1195.18 89.4007C1399.99 97.2749 1619.37 117.253 1795.65 133.308C1962.99 148.548 2083.88 159.557 2096.16 151.125C2104.94 145.093 2057.29 128.834 1946.19 99.9567C1816.77 66.3175 1764.47 46.9873 1776.6 37.2818C1793.15 24.0326 1930.7 30.9208 2121.08 40.4566C2343.1 51.5756 2619.42 65.4137 2858.29 56.5596C3141.27 46.0675 3297.49 6.30459 3335.88 -65L3338 -64.8691C3317.51 -26.8051 3261.5 2.89244 3171.52 23.4011C3094.06 41.0561 2988.75 52.4581 2858.52 57.2861C2619.37 66.1501 2342.91 52.3037 2120.76 41.1794C1931.34 31.69 1794.49 24.8383 1778.58 37.5664C1767.06 46.7864 1820.74 66.4263 1947.5 99.3762C2061.09 128.904 2107.54 144.962 2098.09 151.448C2094.85 153.673 2084.93 154.664 2069.29 154.664C2021.84 154.665 1921.68 145.543 1795.09 134.013C1618.88 117.966 1399.58 97.9939 1194.93 90.1273C952.962 80.8273 791.952 90.774 702.695 120.542C620.778 147.861 602.211 192.613 647.513 253.555C668.602 281.922 674.507 307.147 665.063 328.533C656.153 348.708 633.287 366.116 597.103 380.267C514.305 412.647 359.055 429.773 122.478 432.624C-85.6398 435.129 -326.497 426.627 -559.421 418.404C-942.31 404.887 -1303.96 392.119 -1405.12 435.454C-1439.77 450.294 -1443.03 470.675 -1415.09 497.758L-1417.13 498Z" fill="#642B73"/>
<path d="M-1469.01 500C-1496.1 473.713 -1492.62 453.687 -1458.4 438.779C-1411.68 418.431 -1309.54 408.265 -1136.96 406.791C-983.567 405.481 -794.551 411.175 -594.423 417.205C-356.241 424.381 -109.956 431.801 102.541 428.254C343.657 424.232 501.334 406.247 584.594 373.274C658.042 344.186 674.723 304.036 635.596 250.53C592.342 191.392 611.639 147.44 692.936 119.894C741.192 103.547 812.461 92.5966 904.774 87.3531C984.307 82.8361 1082.26 82.4134 1195.92 86.0974C1404.9 92.8715 1628.76 111.78 1808.64 126.974C1978.72 141.341 2101.6 151.719 2113.5 143.151C2121.91 137.095 2074.04 121.311 1962.87 93.4799C1833.55 61.1029 1781.02 42.338 1792.55 32.6384C1808.51 19.2091 1948.68 25.4471 2142.68 34.0822C2367.85 44.1039 2648.09 56.5783 2891.12 46.8391C3179.06 35.3005 3339.26 -4.5518 3380.88 -75L3383 -74.8561C3360.78 -37.2524 3302.78 -7.74465 3210.61 12.8478C3131.27 30.5756 3023.87 42.2565 2891.38 47.564C2829.22 50.0555 2764.59 51.0965 2699.12 51.0965C2508.36 51.0987 2310.13 42.2718 2142.4 34.8078C1949.36 26.2146 1809.89 20.0079 1794.55 32.911C1783.6 42.1233 1837.49 61.1829 1964.15 92.8913C2077.83 121.35 2124.49 136.947 2115.44 143.464C2102.8 152.573 1985.56 142.672 1808.11 127.683C1628.3 112.495 1404.53 93.5949 1195.72 86.8246C948.757 78.8185 784.796 89.805 694.461 120.41C613.731 147.764 594.63 191.482 637.689 250.355C657.663 277.669 662.939 302.077 653.367 322.903C644.328 342.579 621.738 359.687 586.233 373.75C502.571 406.885 344.387 424.952 102.647 428.985C-109.994 432.532 -356.36 425.109 -594.613 417.932C-794.676 411.905 -983.641 406.214 -1136.91 407.522C-1308.79 408.99 -1410.41 419.064 -1456.69 439.229C-1490.44 453.925 -1493.8 473.725 -1466.98 499.759L-1469.01 500Z" fill="#E32923"/>
<path d="M-1522.85 502C-1548.87 476.748 -1545.31 457.308 -1511.99 442.569C-1465.13 421.84 -1361.32 411.114 -1185.29 408.808C-1028.82 406.762 -835.624 411.605 -631.084 416.732C-387.375 422.844 -135.368 429.162 81.8244 424.568C328.3 419.355 489.009 400.438 573.139 366.734C645.127 337.894 662.116 298.834 625.064 247.325C584.004 190.245 603.782 147.348 683.836 119.822C732.662 103.034 805.103 91.5726 899.164 85.7554C980.189 80.7435 1080.11 79.7638 1196.13 82.8438C1409.44 88.5048 1637.99 106.323 1821.63 120.64C1994.58 134.123 2119.56 143.866 2131.05 135.176C2139.09 129.099 2090.98 113.792 1979.68 86.998C1852.12 56.2947 1797.74 37.5457 1808.53 27.9949C1823.87 14.408 1966.75 19.9875 2164.52 27.7107C2392.98 36.6331 2677.31 47.7357 2924.66 37.1123C3217.72 24.5256 3382 -15.4169 3426.9 -85L3429 -84.8438C3405.04 -47.7017 3345.02 -18.3872 3250.6 2.2891C3169.33 20.0865 3059.76 32.0477 2924.93 37.8383C2852.85 40.9327 2777.59 42.1867 2701.54 42.1867C2516.38 42.189 2326.31 34.7644 2164.28 28.4375C1967.47 20.7516 1825.29 15.1995 1810.54 28.2562C1800.17 37.4459 1854.3 55.9221 1980.93 86.403C2094.76 113.802 2141.66 128.937 2133.02 135.474C2120.81 144.715 2001.6 135.42 1821.14 121.351C1637.57 107.04 1409.11 89.2308 1195.97 83.5713C943.797 76.8796 776.79 88.9048 685.37 120.335C605.875 147.668 586.288 190.337 627.157 247.151C646.059 273.431 650.739 297.029 641.058 317.291C631.905 336.462 609.612 353.256 574.783 367.206C490.255 401.07 329.05 420.073 81.9592 425.299C-135.379 429.898 -387.46 423.575 -631.244 417.461C-835.716 412.334 -1028.84 407.494 -1185.21 409.54C-1360.55 411.835 -1463.84 422.471 -1510.28 443.014C-1543.12 457.543 -1546.57 476.758 -1520.81 501.759L-1522.85 502Z" fill="#CF1995"/>
<path d="M-1576.66 504C-1601.62 479.806 -1598.01 460.983 -1565.62 446.459C-1518.67 425.406 -1413.2 414.14 -1233.69 411.007C-1074.1 408.221 -876.707 412.195 -667.721 416.402C-418.422 421.42 -160.633 426.609 61.299 420.968C313.177 414.566 476.919 394.755 561.873 360.405C631.375 332.302 649.111 293.322 614.574 244.547C575.668 189.6 595.861 147.84 674.585 120.429C723.952 103.243 797.555 91.2918 893.362 84.9092C975.886 79.4111 1077.78 77.8725 1196.2 80.3359C1413.89 84.8666 1647.18 101.545 1834.64 114.948C2010.51 127.522 2137.57 136.603 2148.62 127.82C2156.26 121.747 2107.93 106.94 1996.5 81.2197C1868.98 51.7845 1814.34 33.6496 1824.53 24.1479C1839.23 10.4472 1984.85 15.3536 2186.37 22.1408C2418.13 29.9487 2706.56 39.6642 2958.2 28.1766C3256.38 14.5649 3424.74 -25.3981 3472.9 -94L3475 -93.8304C3449.29 -57.2162 3387.25 -28.1437 3290.59 -7.41918C3207.39 10.4198 3095.65 22.639 2958.49 28.9007C2706.59 40.4004 2418.02 30.6789 2186.16 22.8671C1985.6 16.1126 1840.69 11.2298 1826.56 24.3974C1816.76 33.5348 1871.14 51.3989 1997.71 80.6158C2111.68 106.923 2158.83 121.568 2150.61 128.106C2138.85 137.444 2017.65 128.778 1834.2 115.663C1646.81 102.265 1413.6 85.5907 1196.07 81.0661C938.659 75.7094 768.577 88.7531 676.132 120.939C597.953 148.159 577.944 189.69 616.671 244.378C634.525 269.594 638.629 292.351 628.869 312.014C619.621 330.641 597.637 347.08 563.524 360.873C478.178 395.382 313.949 415.279 61.4606 421.697C-160.611 427.343 -418.476 422.152 -667.849 417.131C-876.77 412.925 -1074.11 408.953 -1233.58 411.735C-1412.4 414.858 -1517.37 426.033 -1563.9 446.899C-1595.83 461.213 -1599.33 479.813 -1574.63 503.758L-1576.66 504Z" fill="#DF1595"/>
<path d="M-1632.44 507C-1656.38 483.763 -1652.73 465.499 -1621.25 451.164C-1574.21 429.735 -1467.01 417.902 -1283.87 413.927C-1121.03 410.39 -919.243 413.496 -705.608 416.784C-450.457 420.709 -186.627 424.767 40.2453 418.055C297.763 410.434 464.654 389.675 550.449 354.59C618.472 326.774 636.429 288.864 603.824 241.912C566.994 188.886 587.556 148.137 664.942 120.798C714.854 103.162 789.671 90.6867 887.307 83.7185C971.4 77.7175 1075.37 75.6103 1196.3 77.4624C1418.6 80.8627 1656.9 96.4433 1848.37 108.964C2027.28 120.661 2156.55 129.112 2167.16 120.217C2174.43 114.134 2125.82 99.7773 2014.19 75.033C1886.6 46.7505 1831.65 29.1694 1841.26 19.6964C1855.31 5.85678 2003.76 10.0971 2209.23 15.9648C2444.46 22.6833 2737.2 31.0451 2993.35 18.6539C3296.88 3.96966 3469.45 -36.1504 3520.91 -104L3523 -103.818C3495.53 -67.607 3431.42 -38.6795 3332.45 -17.8381C3247.25 0.103264 3133.26 12.6239 2993.66 19.3766C2737.26 31.78 2444.38 23.4166 2209.05 16.6944C2004.55 10.8533 1856.8 6.6328 1843.3 19.9348C1834.06 29.0392 1888.74 46.3515 2015.37 74.4215C2129.55 99.7324 2176.98 113.941 2169.17 120.489C2157.87 129.945 2034.59 121.884 1847.97 109.681C1656.56 97.1667 1418.35 81.59 1196.21 78.1919C933.225 74.1679 759.986 88.2726 666.493 121.303C589.649 148.452 569.271 188.976 605.922 241.747C622.772 266.006 626.329 288.005 616.5 307.129C607.181 325.273 585.515 341.397 552.104 355.058C465.925 390.298 298.554 411.143 40.4317 418.783C-186.582 425.5 -450.49 421.439 -705.705 417.515C-919.283 414.227 -1121.01 411.124 -1283.73 414.657C-1466.19 418.618 -1572.89 430.356 -1619.53 451.601C-1650.53 465.727 -1654.09 483.769 -1630.4 506.758L-1632.44 507Z" fill="#3D2F89"/>
</g>
<defs>
<clipPath id="clip0_74_44">
<rect width="2570" height="812" fill="white" transform="translate(-215 -104)"/>
</clipPath>
</defs>
</svg>
